<svg xmlns="http://www.w3.org/2000/svg" xmlns:cc="http://web.resource.org/cc/" xmlns:svg="http://www.w3.org/2000/svg" xmlns:xlink="http://www.w3.org/1999/xlink" id="svg2084" width="32" height="32"><defs id="defs2086"><radialGradient id="radialGradient7613" cx="-677.295" cy="-211.373" r="2.2" fx="-677.295" fy="-211.373" gradientTransform="matrix(0.272346,1.496412,-1.818757,0.331010,-875.9796,871.1170)" gradientUnits="userSpaceOnUse" xlink:href="#linearGradient5780"/><radialGradient id="radialGradient7617" cx="-677.295" cy="-211.373" r="2.2" fx="-677.295" fy="-211.373" gradientTransform="matrix(0.272346,1.496412,-1.818757,0.331010,-875.9796,871.1170)" gradientUnits="userSpaceOnUse" xlink:href="#linearGradient5780"/><radialGradient id="radialGradient7621" cx="-677.295" cy="-211.373" r="2.2" fx="-677.295" fy="-211.373" gradientTransform="matrix(0.272346,1.496412,-1.818757,0.331010,-875.9796,871.1170)" gradientUnits="userSpaceOnUse" xlink:href="#linearGradient5780"/><radialGradient id="radialGradient7625" cx="-677.295" cy="-211.373" r="2.2" fx="-677.295" fy="-211.373" gradientTransform="matrix(0.272346,1.496412,-1.818757,0.331010,-875.9796,871.1170)" gradientUnits="userSpaceOnUse" xlink:href="#linearGradient5780"/><radialGradient id="radialGradient7629" cx="-677.295" cy="-211.373" r="2.2" fx="-677.295" fy="-211.373" gradientTransform="matrix(0.272346,1.496412,-1.818757,0.331010,-875.9796,871.1170)" gradientUnits="userSpaceOnUse" xlink:href="#linearGradient5780"/><radialGradient id="radialGradient7633" cx="-677.295" cy="-211.373" r="2.2" fx="-677.295" fy="-211.373" gradientTransform="matrix(0.272346,1.496412,-1.818757,0.331010,-875.9796,871.1170)" gradientUnits="userSpaceOnUse" xlink:href="#linearGradient5780"/><radialGradient id="radialGradient7637" cx="-677.295" cy="-211.373" r="2.2" fx="-677.295" fy="-211.373" gradientTransform="matrix(0.272346,1.496412,-1.818757,0.331010,-875.9796,871.1170)" gradientUnits="userSpaceOnUse" xlink:href="#linearGradient5780"/><radialGradient id="radialGradient7641" cx="-677.295" cy="-211.373" r="2.2" fx="-677.295" fy="-211.373" gradientTransform="matrix(0.272346,1.496412,-1.818757,0.331010,-875.9796,871.1170)" gradientUnits="userSpaceOnUse" xlink:href="#linearGradient5780"/><linearGradient id="linearGradient5780"><stop id="stop5782" offset="0" style="stop-color:#8e8989;stop-opacity:1"/><stop id="stop5784" offset="1" style="stop-color:#fff;stop-opacity:1"/></linearGradient><radialGradient id="radialGradient7645" cx="-677.295" cy="-211.373" r="2.2" fx="-677.295" fy="-211.373" gradientTransform="matrix(0.272346,1.496412,-1.818757,0.331010,-875.9796,871.1170)" gradientUnits="userSpaceOnUse" xlink:href="#linearGradient5780"/></defs><metadata id="metadata2089"/><g id="layer1"><path style="opacity:1;fill:url(#radialGradient7613);fill-opacity:1;fill-rule:nonzero;stroke:none;stroke-width:.40000001;stroke-linecap:round;stroke-linejoin:round;stroke-miterlimit:4;stroke-dasharray:none;stroke-opacity:1" id="path4316" d="M -672.00012 -211.09096 A 2.0000002 2.0000002 0 1 1 -676.00012,-211.09096 A 2.0000002 2.0000002 0 1 1 -672.00012 -211.09096 z" transform="matrix(0.742556,0.000000,0.000000,0.742556,512.9381,160.2022)"/><path style="opacity:1;fill:url(#radialGradient7617);fill-opacity:1;fill-rule:nonzero;stroke:none;stroke-width:.40000001;stroke-linecap:round;stroke-linejoin:round;stroke-miterlimit:4;stroke-dasharray:none;stroke-opacity:1" id="path7615" d="M -672.00012 -211.09096 A 2.0000002 2.0000002 0 1 1 -676.00012,-211.09096 A 2.0000002 2.0000002 0 1 1 -672.00012 -211.09096 z" transform="matrix(0.742556,0.000000,0.000000,0.742556,516.9679,163.2022)"/><path style="opacity:1;fill:url(#radialGradient7621);fill-opacity:1;fill-rule:nonzero;stroke:none;stroke-width:.40000001;stroke-linecap:round;stroke-linejoin:round;stroke-miterlimit:4;stroke-dasharray:none;stroke-opacity:1" id="path7619" d="M -672.00012 -211.09096 A 2.0000002 2.0000002 0 1 1 -676.00012,-211.09096 A 2.0000002 2.0000002 0 1 1 -672.00012 -211.09096 z" transform="matrix(0.742556,0.000000,0.000000,0.742556,512.9679,166.2320)"/><path style="opacity:1;fill:url(#radialGradient7625);fill-opacity:1;fill-rule:nonzero;stroke:none;stroke-width:.40000001;stroke-linecap:round;stroke-linejoin:round;stroke-miterlimit:4;stroke-dasharray:none;stroke-opacity:1" id="path7623" d="M -672.00012 -211.09096 A 2.0000002 2.0000002 0 1 1 -676.00012,-211.09096 A 2.0000002 2.0000002 0 1 1 -672.00012 -211.09096 z" transform="matrix(0.742556,0.000000,0.000000,0.742556,516.9679,169.2022)"/><path style="opacity:1;fill:url(#radialGradient7629);fill-opacity:1;fill-rule:nonzero;stroke:none;stroke-width:.40000001;stroke-linecap:round;stroke-linejoin:round;stroke-miterlimit:4;stroke-dasharray:none;stroke-opacity:1" id="path7627" d="M -672.00012 -211.09096 A 2.0000002 2.0000002 0 1 1 -676.00012,-211.09096 A 2.0000002 2.0000002 0 1 1 -672.00012 -211.09096 z" transform="matrix(0.742556,0.000000,0.000000,0.742556,512.9679,172.2320)"/><path style="opacity:1;fill:url(#radialGradient7633);fill-opacity:1;fill-rule:nonzero;stroke:none;stroke-width:.40000001;stroke-linecap:round;stroke-linejoin:round;stroke-miterlimit:4;stroke-dasharray:none;stroke-opacity:1" id="path7631" d="M -672.00012 -211.09096 A 2.0000002 2.0000002 0 1 1 -676.00012,-211.09096 A 2.0000002 2.0000002 0 1 1 -672.00012 -211.09096 z" transform="matrix(0.742556,0.000000,0.000000,0.742556,516.9679,175.2022)"/><path style="opacity:1;fill:url(#radialGradient7637);fill-opacity:1;fill-rule:nonzero;stroke:none;stroke-width:.40000001;stroke-linecap:round;stroke-linejoin:round;stroke-miterlimit:4;stroke-dasharray:none;stroke-opacity:1" id="path7635" d="M -672.00012 -211.09096 A 2.0000002 2.0000002 0 1 1 -676.00012,-211.09096 A 2.0000002 2.0000002 0 1 1 -672.00012 -211.09096 z" transform="matrix(0.742556,0.000000,0.000000,0.742556,512.9381,178.2320)"/><path style="opacity:1;fill:url(#radialGradient7641);fill-opacity:1;fill-rule:nonzero;stroke:none;stroke-width:.40000001;stroke-linecap:round;stroke-linejoin:round;stroke-miterlimit:4;stroke-dasharray:none;stroke-opacity:1" id="path7639" d="M -672.00012 -211.09096 A 2.0000002 2.0000002 0 1 1 -676.00012,-211.09096 A 2.0000002 2.0000002 0 1 1 -672.00012 -211.09096 z" transform="matrix(0.742556,0.000000,0.000000,0.742556,516.9679,181.2320)"/><path style="opacity:1;fill:url(#radialGradient7645);fill-opacity:1;fill-rule:nonzero;stroke:none;stroke-width:.40000001;stroke-linecap:round;stroke-linejoin:round;stroke-miterlimit:4;stroke-dasharray:none;stroke-opacity:1" id="path7643" d="M -672.00012 -211.09096 A 2.0000002 2.0000002 0 1 1 -676.00012,-211.09096 A 2.0000002 2.0000002 0 1 1 -672.00012 -211.09096 z" transform="matrix(0.742556,0.000000,0.000000,0.742556,512.9381,184.2320)"/></g></svg>