<svg xmlns="http://www.w3.org/2000/svg" xmlns:cc="http://web.resource.org/cc/" xmlns:svg="http://www.w3.org/2000/svg" xmlns:xlink="http://www.w3.org/1999/xlink" id="svg8849" width="32" height="32"><defs id="defs8851"><linearGradient id="linearGradient9895"><stop id="stop9897" offset="0" style="stop-color:white;stop-opacity:1"/><stop id="stop9899" offset="1" style="stop-color:#fff;stop-opacity:0"/></linearGradient><linearGradient id="linearGradient8113"><stop style="stop-color:#cdcdcd;stop-opacity:1" id="stop8115" offset="0"/><stop style="stop-color:white;stop-opacity:1" id="stop8117" offset="1"/></linearGradient><linearGradient id="linearGradient5965"><stop id="stop5967" offset="0" style="stop-color:#143e7b;stop-opacity:1"/><stop id="stop5969" offset="1" style="stop-color:#93aacc;stop-opacity:.80733943"/></linearGradient><linearGradient id="linearGradient3964"><stop style="stop-color:#fff;stop-opacity:.87628865" id="stop3966" offset="0"/><stop style="stop-color:#fff;stop-opacity:0" id="stop3968" offset="1"/></linearGradient><linearGradient id="linearGradient3081"><stop style="stop-color:#6c6c6c;stop-opacity:1" id="stop3083" offset="0"/><stop style="stop-color:#6c6c6c;stop-opacity:0" id="stop3085" offset="1"/></linearGradient><linearGradient id="linearGradient3073"><stop style="stop-color:#6c6c6c;stop-opacity:1" id="stop3075" offset="0"/><stop style="stop-color:#6c6c6c;stop-opacity:0" id="stop3077" offset="1"/></linearGradient><linearGradient id="linearGradient29124" x1="256.83" x2="265.527" y1="160.947" y2="149.295" gradientTransform="matrix(1.721869,1.488651,-1.636283,1.877362,-348.3661,-607.77)" gradientUnits="userSpaceOnUse" xlink:href="#linearGradient7006"/><linearGradient id="linearGradient7006"><stop id="stop2072" offset="0" style="stop-color:#ff8400;stop-opacity:1"/><stop style="stop-color:#ffc768;stop-opacity:1" id="stop7010" offset="1"/></linearGradient><radialGradient id="radialGradient30586" cx="85.545" cy="148.303" r="4.204" fx="85.545" fy="148.303" gradientTransform="matrix(0.497065,1.508478,-1.09767,0.3617,204.6784,-34.43849)" gradientUnits="userSpaceOnUse" xlink:href="#linearGradient7006"/><linearGradient id="linearGradient33510" x1="100.968" x2="107.106" y1="145.198" y2="151.145" gradientTransform="matrix(8.171232,0,0,8.248789,-1046.157,-1157.039)" gradientUnits="userSpaceOnUse" xlink:href="#linearGradient14399"/><linearGradient id="linearGradient14399"><stop style="stop-color:#143e7b;stop-opacity:1" id="stop14401" offset="0"/><stop style="stop-color:#93aacc;stop-opacity:.65486723" id="stop14403" offset="1"/></linearGradient><linearGradient id="linearGradient3079" x1="85.999" x2="85.999" y1="149.361" y2="153.168" gradientUnits="userSpaceOnUse" xlink:href="#linearGradient3073"/><linearGradient id="linearGradient3087" x1="-110.237" x2="-211.485" y1="74.378" y2="-11.71" gradientUnits="userSpaceOnUse" xlink:href="#linearGradient3081"/><linearGradient id="linearGradient4855" x1="-185.812" x2="-151.743" y1="-17.255" y2="-17.378" gradientUnits="userSpaceOnUse" xlink:href="#linearGradient3964"/><linearGradient id="linearGradient6625" x1="-216.003" x2="-216.003" y1="47.485" y2="60.92" gradientTransform="matrix(0.722844,0,0,2.073068,-71.21054,-60.93884)" gradientUnits="userSpaceOnUse" xlink:href="#linearGradient3964"/><linearGradient id="linearGradient7502" x1="-216.003" x2="-216.003" y1="47.485" y2="60.92" gradientTransform="matrix(0,0.93405,2.073068,0,-320.8538,238.7575)" gradientUnits="userSpaceOnUse" xlink:href="#linearGradient3964"/><linearGradient id="linearGradient7506" x1="279.165" x2="255.24" y1="142.056" y2="155.092" gradientTransform="matrix(1.535087,1.357851,-1.458785,1.712408,-323.0305,-547.1501)" gradientUnits="userSpaceOnUse" xlink:href="#linearGradient3964"/><linearGradient id="linearGradient7085" x1="256.83" x2="265.527" y1="160.947" y2="149.295" gradientTransform="matrix(-1.679948,1.487314,1.596446,1.875676,26.403,-607.2677)" gradientUnits="userSpaceOnUse" xlink:href="#linearGradient14399"/><linearGradient id="linearGradient7087" x1="-110.237" x2="-211.485" y1="74.378" y2="-11.71" gradientTransform="matrix(-0.975654,0,0,0.999102,-313.4818,-4.349e-2)" gradientUnits="userSpaceOnUse" xlink:href="#linearGradient3081"/><radialGradient id="radialGradient7089" cx="85.545" cy="148.303" r="4.204" fx="85.545" fy="148.303" gradientTransform="matrix(0.497065,1.508478,-1.09767,0.3617,204.6784,-34.43849)" gradientUnits="userSpaceOnUse" xlink:href="#linearGradient14399"/><linearGradient id="linearGradient7091" x1="85.999" x2="85.999" y1="149.361" y2="153.168" gradientUnits="userSpaceOnUse" xlink:href="#linearGradient3073"/><linearGradient id="linearGradient7093" x1="-185.812" x2="-151.743" y1="-17.255" y2="-17.378" gradientUnits="userSpaceOnUse" xlink:href="#linearGradient3964"/><linearGradient id="linearGradient7095" x1="279.165" x2="255.24" y1="142.056" y2="155.092" gradientTransform="matrix(-1.497714,1.356632,1.423269,1.71087,1.6842,-546.7023)" gradientUnits="userSpaceOnUse" xlink:href="#linearGradient3964"/><radialGradient id="radialGradient7101" cx="85.545" cy="148.303" r="4.204" fx="85.545" fy="148.303" gradientTransform="matrix(0.497065,1.508478,-1.09767,0.3617,204.6784,-34.43849)" gradientUnits="userSpaceOnUse" xlink:href="#linearGradient7006"/><linearGradient id="linearGradient7103" x1="85.999" x2="85.999" y1="149.361" y2="153.168" gradientUnits="userSpaceOnUse" xlink:href="#linearGradient3073"/><linearGradient id="linearGradient7105" x1="-185.812" x2="-151.743" y1="-17.255" y2="-17.378" gradientUnits="userSpaceOnUse" xlink:href="#linearGradient3964"/><linearGradient id="linearGradient7162" x1="279.165" x2="255.24" y1="142.056" y2="155.092" gradientTransform="matrix(1.351847,1.224506,-1.284653,1.544243,-278.0469,-501.1972)" gradientUnits="userSpaceOnUse" xlink:href="#linearGradient3964"/><linearGradient id="linearGradient7167" x1="256.83" x2="265.527" y1="160.947" y2="149.295" gradientTransform="matrix(1.516333,1.34246,-1.440963,1.692998,-300.3583,-555.8639)" gradientUnits="userSpaceOnUse" xlink:href="#linearGradient7006"/><linearGradient id="linearGradient7169" x1="-110.237" x2="-211.485" y1="74.378" y2="-11.71" gradientTransform="matrix(0.880632,0,0,0.901796,6.424046,-7.779076)" gradientUnits="userSpaceOnUse" xlink:href="#linearGradient3081"/><linearGradient id="linearGradient8119" x1="-136.604" x2="-189.112" y1="81.168" y2="32.672" gradientUnits="userSpaceOnUse" xlink:href="#linearGradient8113"/><linearGradient id="linearGradient8123" x1="-139.152" x2="-198.062" y1="78.832" y2="18.652" gradientTransform="matrix(0.903078,0,0,0.864821,-19.39201,2.584892)" gradientUnits="userSpaceOnUse" xlink:href="#linearGradient9895"/><linearGradient id="linearGradient10017" x1="256.83" x2="265.527" y1="160.947" y2="149.295" gradientTransform="matrix(-1.679948,1.487314,1.596446,1.875676,26.403,-607.2677)" gradientUnits="userSpaceOnUse" xlink:href="#linearGradient14399"/><linearGradient id="linearGradient10019" x1="-110.237" x2="-211.485" y1="74.378" y2="-11.71" gradientTransform="matrix(-0.975654,0,0,0.999102,-313.4818,-4.349e-2)" gradientUnits="userSpaceOnUse" xlink:href="#linearGradient3081"/><radialGradient id="radialGradient10021" cx="85.545" cy="148.303" r="4.204" fx="85.545" fy="148.303" gradientTransform="matrix(0.497065,1.508478,-1.09767,0.3617,204.6784,-34.43849)" gradientUnits="userSpaceOnUse" xlink:href="#linearGradient14399"/><linearGradient id="linearGradient10023" x1="85.999" x2="85.999" y1="149.361" y2="153.168" gradientUnits="userSpaceOnUse" xlink:href="#linearGradient3073"/><linearGradient id="linearGradient10025" x1="-185.812" x2="-151.743" y1="-17.255" y2="-17.378" gradientUnits="userSpaceOnUse" xlink:href="#linearGradient3964"/><linearGradient id="linearGradient10027" x1="279.165" x2="255.24" y1="142.056" y2="155.092" gradientTransform="matrix(-1.497714,1.356632,1.423269,1.71087,1.6842,-546.7023)" gradientUnits="userSpaceOnUse" xlink:href="#linearGradient3964"/><linearGradient id="linearGradient10029" x1="256.83" x2="265.527" y1="160.947" y2="149.295" gradientTransform="matrix(1.516333,1.34246,-1.440963,1.692998,-300.3583,-555.8639)" gradientUnits="userSpaceOnUse" xlink:href="#linearGradient7006"/><linearGradient id="linearGradient10031" x1="-110.237" x2="-211.485" y1="74.378" y2="-11.71" gradientTransform="matrix(0.880632,0,0,0.901796,6.424046,-7.779076)" gradientUnits="userSpaceOnUse" xlink:href="#linearGradient3081"/><radialGradient id="radialGradient10033" cx="85.545" cy="148.303" r="4.204" fx="85.545" fy="148.303" gradientTransform="matrix(0.497065,1.508478,-1.09767,0.3617,204.6784,-34.43849)" gradientUnits="userSpaceOnUse" xlink:href="#linearGradient7006"/><linearGradient id="linearGradient10035" x1="85.999" x2="85.999" y1="149.361" y2="153.168" gradientUnits="userSpaceOnUse" xlink:href="#linearGradient3073"/><linearGradient id="linearGradient10037" x1="-185.812" x2="-151.743" y1="-17.255" y2="-17.378" gradientUnits="userSpaceOnUse" xlink:href="#linearGradient3964"/><linearGradient id="linearGradient10039" x1="279.165" x2="255.24" y1="142.056" y2="155.092" gradientTransform="matrix(1.351847,1.224506,-1.284653,1.544243,-278.0469,-501.1972)" gradientUnits="userSpaceOnUse" xlink:href="#linearGradient3964"/><linearGradient id="linearGradient10041" x1="-136.604" x2="-189.112" y1="81.168" y2="32.672" gradientUnits="userSpaceOnUse" xlink:href="#linearGradient8113"/><linearGradient id="linearGradient10043" x1="-139.152" x2="-198.062" y1="78.832" y2="18.652" gradientTransform="matrix(0.903078,0,0,0.864821,-19.39201,2.584892)" gradientUnits="userSpaceOnUse" xlink:href="#linearGradient9895"/><linearGradient id="linearGradient10046" x1="-139.152" x2="-198.062" y1="78.832" y2="18.652" gradientTransform="matrix(0.903078,0,0,0.864821,-19.39201,2.584892)" gradientUnits="userSpaceOnUse" xlink:href="#linearGradient9895"/><linearGradient id="linearGradient10049" x1="-136.604" x2="-189.112" y1="81.168" y2="32.672" gradientUnits="userSpaceOnUse" xlink:href="#linearGradient8113"/><linearGradient id="linearGradient10103" x1="279.165" x2="255.24" y1="142.056" y2="155.092" gradientTransform="matrix(1.351847,1.224506,-1.284653,1.544243,-278.0469,-501.1972)" gradientUnits="userSpaceOnUse" xlink:href="#linearGradient3964"/><linearGradient id="linearGradient10108" x1="256.83" x2="265.527" y1="160.947" y2="149.295" gradientTransform="matrix(1.516333,1.34246,-1.440963,1.692998,-300.3583,-555.8639)" gradientUnits="userSpaceOnUse" xlink:href="#linearGradient7006"/><linearGradient id="linearGradient10110" x1="-110.237" x2="-211.485" y1="74.378" y2="-11.71" gradientTransform="matrix(0.880632,0,0,0.901796,6.424046,-7.779076)" gradientUnits="userSpaceOnUse" xlink:href="#linearGradient3081"/><linearGradient id="linearGradient10169" x1="256.83" x2="265.527" y1="160.947" y2="149.295" gradientTransform="matrix(-1.679948,1.487314,1.596446,1.875676,26.403,-607.2677)" gradientUnits="userSpaceOnUse" xlink:href="#linearGradient14399"/><linearGradient id="linearGradient10171" x1="-110.237" x2="-211.485" y1="74.378" y2="-11.71" gradientTransform="matrix(-0.975654,0,0,0.999102,-313.4818,-4.349e-2)" gradientUnits="userSpaceOnUse" xlink:href="#linearGradient3081"/><radialGradient id="radialGradient10173" cx="85.545" cy="148.303" r="4.204" fx="85.545" fy="148.303" gradientTransform="matrix(0.497065,1.508478,-1.09767,0.3617,204.6784,-34.43849)" gradientUnits="userSpaceOnUse" xlink:href="#linearGradient14399"/><linearGradient id="linearGradient10175" x1="85.999" x2="85.999" y1="149.361" y2="153.168" gradientUnits="userSpaceOnUse" xlink:href="#linearGradient3073"/><linearGradient id="linearGradient10177" x1="-185.812" x2="-151.743" y1="-17.255" y2="-17.378" gradientUnits="userSpaceOnUse" xlink:href="#linearGradient3964"/><linearGradient id="linearGradient10179" x1="279.165" x2="255.24" y1="142.056" y2="155.092" gradientTransform="matrix(-1.497714,1.356632,1.423269,1.71087,1.6842,-546.7023)" gradientUnits="userSpaceOnUse" xlink:href="#linearGradient3964"/><linearGradient id="linearGradient10237" x1="256.83" x2="265.527" y1="160.947" y2="149.295" gradientTransform="matrix(-1.679948,1.487314,1.596446,1.875676,26.403,-607.2677)" gradientUnits="userSpaceOnUse" xlink:href="#linearGradient14399"/><linearGradient id="linearGradient10239" x1="-110.237" x2="-211.485" y1="74.378" y2="-11.71" gradientTransform="matrix(-0.975654,0,0,0.999102,-313.4818,-4.349e-2)" gradientUnits="userSpaceOnUse" xlink:href="#linearGradient3081"/><radialGradient id="radialGradient10241" cx="85.545" cy="148.303" r="4.204" fx="85.545" fy="148.303" gradientTransform="matrix(0.497065,1.508478,-1.09767,0.3617,204.6784,-34.43849)" gradientUnits="userSpaceOnUse" xlink:href="#linearGradient14399"/><linearGradient id="linearGradient10243" x1="85.999" x2="85.999" y1="149.361" y2="153.168" gradientUnits="userSpaceOnUse" xlink:href="#linearGradient3073"/><linearGradient id="linearGradient10245" x1="-185.812" x2="-151.743" y1="-17.255" y2="-17.378" gradientUnits="userSpaceOnUse" xlink:href="#linearGradient3964"/><linearGradient id="linearGradient10247" x1="279.165" x2="255.24" y1="142.056" y2="155.092" gradientTransform="matrix(-1.497714,1.356632,1.423269,1.71087,1.6842,-546.7023)" gradientUnits="userSpaceOnUse" xlink:href="#linearGradient3964"/><linearGradient id="linearGradient10301" x1="279.165" x2="255.24" y1="142.056" y2="155.092" gradientTransform="matrix(1.351847,1.224506,-1.284653,1.544243,-346.308,-520.893)" gradientUnits="userSpaceOnUse" xlink:href="#linearGradient3964"/><linearGradient id="linearGradient10306" x1="256.83" x2="265.527" y1="160.947" y2="149.295" gradientTransform="matrix(1.516333,1.34246,-1.440963,1.692998,-368.6193,-575.5597)" gradientUnits="userSpaceOnUse" xlink:href="#linearGradient14399"/><linearGradient id="linearGradient10308" x1="-110.237" x2="-211.485" y1="74.378" y2="-11.71" gradientTransform="matrix(0.880632,0,0,0.901796,-61.83693,-27.47491)" gradientUnits="userSpaceOnUse" xlink:href="#linearGradient3081"/></defs><metadata id="metadata8854"/><g id="layer1"><path style="fill:none;fill-opacity:.82410434;stroke:none;stroke-width:1.57000005;stroke-linecap:round;stroke-linejoin:round;stroke-miterlimit:4;stroke-dasharray:none;stroke-opacity:.66666667" id="path2033" d="M -49.270456,-18.353325 A 18.408743,18.408743 0 1 1 -49.271242,-18.523392" transform="translate(127.9525,-13.84182)"/><path style="fill:none;fill-opacity:.82410434;stroke:none;stroke-width:1.57000005;stroke-linecap:round;stroke-linejoin:round;stroke-miterlimit:4;stroke-dasharray:none;stroke-opacity:.66666667" id="path3972" d="M -49.270456,-18.353325 A 18.408743,18.408743 0 1 1 -49.271242,-18.523392" transform="translate(40.25436,-18.60547)"/><g id="g10310"><path style="fill:url(#linearGradient10306);fill-opacity:1;fill-rule:evenodd;stroke:url(#linearGradient10308);stroke-width:3.20452976;stroke-linecap:round;stroke-linejoin:round;stroke-miterlimit:4;stroke-dasharray:none;stroke-opacity:1" id="path2035" d="M -217.51558,-21.317733 C -210.2664,-16.77238 -192.51239,-9.1889155 -182.70075,-21.976936 C -164.6578,-9.102156 -145.06677,33.746484 -151.02903,54.882897 C -167.75082,75.82991 -229.94527,74.793473 -246.07778,58.752443 C -257.47443,33.99648 -233.75322,-9.4726091 -217.51558,-21.317733 z"/><path style="fill:url(#radialGradient10241);fill-opacity:1;fill-rule:nonzero;stroke:url(#linearGradient10243);stroke-width:.43799999;stroke-linecap:round;stroke-linejoin:round;stroke-miterlimit:4;stroke-dasharray:none;stroke-opacity:1" id="path2037" d="M 89.984229,148.24525 A 3.9848089,3.9848089 0 1 1 89.984059,148.20844" transform="matrix(7.19585,0,0,7.438723,-819.4134,-1145.261)"/><path style="fill:url(#linearGradient10245);fill-opacity:1;stroke:none;stroke-width:1.57000005;stroke-linecap:round;stroke-linejoin:round;stroke-miterlimit:4;stroke-dasharray:none;stroke-opacity:.66666667" id="path2039" d="M -149.43568,-17.541174 A 14.889424,14.889424 0 1 1 -149.43631,-17.678728" transform="matrix(1.047632,0.766544,-0.846477,1.21315,-49.6382,98.8229)"/><path style="fill:url(#linearGradient10301);fill-opacity:1;fill-rule:evenodd;stroke:none;stroke-width:3.59594297;stroke-linecap:round;stroke-linejoin:round;stroke-miterlimit:4;stroke-dasharray:none;stroke-opacity:1" id="path2041" d="M -211.5954,-15.349318 C -205.91674,-12.807903 -188.52032,-13.913541 -182.12545,-17.555158 C -166.03973,-5.8116126 -147.00557,34.876704 -152.32106,54.155967 C -167.22894,73.262462 -222.67677,72.31709 -237.05929,57.685517 C -247.21967,35.104733 -226.07165,-4.544958 -211.5954,-15.349318 z"/><g id="g2045" transform="matrix(0,0.902607,0.902607,0,-308.2665,162.5871)"><rect style="fill:#fff;fill-opacity:.75649348;stroke:none;stroke-width:1.57000005;stroke-linecap:round;stroke-linejoin:round;stroke-miterlimit:4;stroke-dasharray:none;stroke-opacity:1" id="rect2047" width="6" height="6" x="92.538" y="108.527" rx="2.216" ry="2.216" transform="matrix(0,1,-1,0,0,0)"/><rect style="fill:#fff;fill-opacity:.75649348;stroke:none;stroke-width:1.57000005;stroke-linecap:round;stroke-linejoin:round;stroke-miterlimit:4;stroke-dasharray:none;stroke-opacity:1" id="rect2049" width="6" height="6" x="92.538" y="118.527" rx="2.216" ry="2.216" transform="matrix(0,1,-1,0,0,0)"/><rect style="fill:#fff;fill-opacity:.75649348;stroke:none;stroke-width:1.57000005;stroke-linecap:round;stroke-linejoin:round;stroke-miterlimit:4;stroke-dasharray:none;stroke-opacity:1" id="rect2051" width="6" height="6" x="92.538" y="128.527" rx="2.216" ry="2.216" transform="matrix(0,1,-1,0,0,0)"/></g><g id="g2053" transform="matrix(0,0.902607,0.902607,0,-284.7658,206.3396)"><rect style="fill:#fff;fill-opacity:.75649348;stroke:none;stroke-width:1.57000005;stroke-linecap:round;stroke-linejoin:round;stroke-miterlimit:4;stroke-dasharray:none;stroke-opacity:1" id="rect2055" width="6" height="6" x="80" y="154" rx="2.216" ry="2.216" transform="matrix(0,1,-1,0,0,0)"/><rect style="fill:#fff;fill-opacity:.75649348;stroke:none;stroke-width:1.57000005;stroke-linecap:round;stroke-linejoin:round;stroke-miterlimit:4;stroke-dasharray:none;stroke-opacity:1" id="rect2057" width="6" height="6" x="80" y="164" rx="2.216" ry="2.216" transform="matrix(0,1,-1,0,0,0)"/><rect style="fill:#fff;fill-opacity:.75649348;stroke:none;stroke-width:1.57000005;stroke-linecap:round;stroke-linejoin:round;stroke-miterlimit:4;stroke-dasharray:none;stroke-opacity:1" id="rect2059" width="6" height="6" x="80" y="174" rx="2.216" ry="2.216" transform="matrix(0,1,-1,0,0,0)"/><rect style="fill:#fff;fill-opacity:.75649348;stroke:none;stroke-width:1.57000005;stroke-linecap:round;stroke-linejoin:round;stroke-miterlimit:4;stroke-dasharray:none;stroke-opacity:1" id="rect2061" width="6" height="6" x="80" y="184" rx="2.216" ry="2.216" transform="matrix(0,1,-1,0,0,0)"/></g><g id="g2063" transform="matrix(0.902607,0,0,-0.902607,-19.84928,110.6632)"><rect style="fill:#fff;fill-opacity:.75649348;stroke:none;stroke-width:1.57000005;stroke-linecap:round;stroke-linejoin:round;stroke-miterlimit:4;stroke-dasharray:none;stroke-opacity:1" id="rect2065" width="6" height="6" x="-201" y="57" rx="2.216" ry="2.216"/><rect style="fill:#fff;fill-opacity:.75649348;stroke:none;stroke-width:1.57000005;stroke-linecap:round;stroke-linejoin:round;stroke-miterlimit:4;stroke-dasharray:none;stroke-opacity:1" id="rect2067" width="6" height="6" x="-201" y="47" rx="2.216" ry="2.216"/><rect style="fill:#fff;fill-opacity:.75649348;stroke:none;stroke-width:1.57000005;stroke-linecap:round;stroke-linejoin:round;stroke-miterlimit:4;stroke-dasharray:none;stroke-opacity:1" id="rect2069" width="6" height="6" x="-201" y="67" rx="2.216" ry="2.216"/><rect style="fill:#fff;fill-opacity:.75649348;stroke:none;stroke-width:1.57000005;stroke-linecap:round;stroke-linejoin:round;stroke-miterlimit:4;stroke-dasharray:none;stroke-opacity:1" id="rect2071" width="6" height="6" x="-201" y="77" rx="2.216" ry="2.216"/><rect style="fill:#fff;fill-opacity:.75649348;stroke:none;stroke-width:1.57000005;stroke-linecap:round;stroke-linejoin:round;stroke-miterlimit:4;stroke-dasharray:none;stroke-opacity:1" id="rect2073" width="6" height="6" x="-201" y="87" rx="2.216" ry="2.216"/><rect style="fill:#fff;fill-opacity:.75649348;stroke:none;stroke-width:1.57000005;stroke-linecap:round;stroke-linejoin:round;stroke-miterlimit:4;stroke-dasharray:none;stroke-opacity:1" id="rect2075" width="6" height="6" x="-201" y="97" rx="2.216" ry="2.216"/></g><g id="g2077" transform="matrix(-0.902607,0,0,0.902607,-351.106,-30.62513)"><rect style="fill:#fff;fill-opacity:.75649348;stroke:none;stroke-width:1.57000005;stroke-linecap:round;stroke-linejoin:round;stroke-miterlimit:4;stroke-dasharray:none;stroke-opacity:1" id="rect2079" width="6" height="6" x="127" y="-102" rx="2.216" ry="2.216" transform="scale(-1,-1)"/><rect style="fill:#fff;fill-opacity:.75649348;stroke:none;stroke-width:1.57000005;stroke-linecap:round;stroke-linejoin:round;stroke-miterlimit:4;stroke-dasharray:none;stroke-opacity:1" id="rect2081" width="6" height="6" x="127" y="-92" rx="2.216" ry="2.216" transform="scale(-1,-1)"/></g><rect id="rect2083" width="5.416" height="5.416" x="-246.404" y="-55.604" rx="2" ry="2" transform="scale(1,-1)" style="fill:#fff;fill-opacity:.75649348;stroke:none;stroke-width:1.57000005;stroke-linecap:round;stroke-linejoin:round;stroke-miterlimit:4;stroke-dasharray:none;stroke-opacity:1"/><g id="g2085" transform="matrix(-0.902607,0,0,0.902607,-344.7878,-27.43566)"><g id="g2087" transform="matrix(-1,0,0,-1,-373,151)"><rect id="rect2089" width="6" height="6" x="-201" y="57" rx="2.216" ry="2.216" style="fill:#fff;fill-opacity:.75649348;stroke:none;stroke-width:1.57000005;stroke-linecap:round;stroke-linejoin:round;stroke-miterlimit:4;stroke-dasharray:none;stroke-opacity:1"/><rect id="rect2091" width="6" height="6" x="-201" y="47" rx="2.216" ry="2.216" style="fill:#fff;fill-opacity:.75649348;stroke:none;stroke-width:1.57000005;stroke-linecap:round;stroke-linejoin:round;stroke-miterlimit:4;stroke-dasharray:none;stroke-opacity:1"/><rect id="rect2093" width="6" height="6" x="-201" y="67" rx="2.216" ry="2.216" style="fill:#fff;fill-opacity:.75649348;stroke:none;stroke-width:1.57000005;stroke-linecap:round;stroke-linejoin:round;stroke-miterlimit:4;stroke-dasharray:none;stroke-opacity:1"/><rect id="rect2095" width="6" height="6" x="-201" y="77" rx="2.216" ry="2.216" style="fill:#fff;fill-opacity:.75649348;stroke:none;stroke-width:1.57000005;stroke-linecap:round;stroke-linejoin:round;stroke-miterlimit:4;stroke-dasharray:none;stroke-opacity:1"/><rect id="rect2097" width="6" height="6" x="-201" y="87" rx="2.216" ry="2.216" style="fill:#fff;fill-opacity:.75649348;stroke:none;stroke-width:1.57000005;stroke-linecap:round;stroke-linejoin:round;stroke-miterlimit:4;stroke-dasharray:none;stroke-opacity:1"/><rect id="rect2099" width="6" height="6" x="-201" y="97" rx="2.216" ry="2.216" style="fill:#fff;fill-opacity:.75649348;stroke:none;stroke-width:1.57000005;stroke-linecap:round;stroke-linejoin:round;stroke-miterlimit:4;stroke-dasharray:none;stroke-opacity:1"/></g><rect style="fill:#fff;fill-opacity:.75649348;stroke:none;stroke-width:1.57000005;stroke-linecap:round;stroke-linejoin:round;stroke-miterlimit:4;stroke-dasharray:none;stroke-opacity:1" id="rect2101" width="6" height="6" x="172" y="-44" rx="2.216" ry="2.216" transform="scale(-1,-1)"/></g><g id="g2103" transform="matrix(-0.902607,0,0,0.902607,-344.7878,-27.43566)"><g id="g2105" transform="translate(-12.53681,-3)"><g id="g2107" transform="matrix(-1,0,0,-1,-373,151)"><rect style="fill:#fff;fill-opacity:.75649348;stroke:none;stroke-width:1.57000005;stroke-linecap:round;stroke-linejoin:round;stroke-miterlimit:4;stroke-dasharray:none;stroke-opacity:1" id="rect2109" width="6" height="6" x="-201" y="57" rx="2.216" ry="2.216"/><rect style="fill:#fff;fill-opacity:.75649348;stroke:none;stroke-width:1.57000005;stroke-linecap:round;stroke-linejoin:round;stroke-miterlimit:4;stroke-dasharray:none;stroke-opacity:1" id="rect2111" width="6" height="6" x="-201" y="47" rx="2.216" ry="2.216"/><rect style="fill:#fff;fill-opacity:.75649348;stroke:none;stroke-width:1.57000005;stroke-linecap:round;stroke-linejoin:round;stroke-miterlimit:4;stroke-dasharray:none;stroke-opacity:1" id="rect2113" width="6" height="6" x="-201" y="67" rx="2.216" ry="2.216"/><rect style="fill:#fff;fill-opacity:.75649348;stroke:none;stroke-width:1.57000005;stroke-linecap:round;stroke-linejoin:round;stroke-miterlimit:4;stroke-dasharray:none;stroke-opacity:1" id="rect2115" width="6" height="6" x="-201" y="77" rx="2.216" ry="2.216"/><rect style="fill:#fff;fill-opacity:.75649348;stroke:none;stroke-width:1.57000005;stroke-linecap:round;stroke-linejoin:round;stroke-miterlimit:4;stroke-dasharray:none;stroke-opacity:1" id="rect2117" width="6" height="6" x="-201" y="87" rx="2.216" ry="2.216"/><rect style="fill:#fff;fill-opacity:.75649348;stroke:none;stroke-width:1.57000005;stroke-linecap:round;stroke-linejoin:round;stroke-miterlimit:4;stroke-dasharray:none;stroke-opacity:1" id="rect2119" width="6" height="6" x="-201" y="97" rx="2.216" ry="2.216"/></g><rect id="rect2121" width="6" height="6" x="172" y="-44" rx="2.216" ry="2.216" transform="scale(-1,-1)" style="fill:#fff;fill-opacity:.75649348;stroke:none;stroke-width:1.57000005;stroke-linecap:round;stroke-linejoin:round;stroke-miterlimit:4;stroke-dasharray:none;stroke-opacity:1"/></g><rect style="fill:#fff;fill-opacity:.75649348;stroke:none;stroke-width:1.57000005;stroke-linecap:round;stroke-linejoin:round;stroke-miterlimit:4;stroke-dasharray:none;stroke-opacity:1" id="rect2123" width="6" height="6" x="184.53" y="-32" rx="2.216" ry="2.216" transform="scale(-1,-1)"/></g><g id="g2125" transform="matrix(0.902607,0,0,-0.902607,13.54718,102.9977)"><rect style="fill:#fff;fill-opacity:.75649348;stroke:none;stroke-width:1.57000005;stroke-linecap:round;stroke-linejoin:round;stroke-miterlimit:4;stroke-dasharray:none;stroke-opacity:1" id="rect2127" width="6" height="6" x="-201" y="57" rx="2.216" ry="2.216"/><rect style="fill:#fff;fill-opacity:.75649348;stroke:none;stroke-width:1.57000005;stroke-linecap:round;stroke-linejoin:round;stroke-miterlimit:4;stroke-dasharray:none;stroke-opacity:1" id="rect2129" width="6" height="6" x="-201" y="47" rx="2.216" ry="2.216"/><rect style="fill:#fff;fill-opacity:.75649348;stroke:none;stroke-width:1.57000005;stroke-linecap:round;stroke-linejoin:round;stroke-miterlimit:4;stroke-dasharray:none;stroke-opacity:1" id="rect2131" width="6" height="6" x="-201" y="67" rx="2.216" ry="2.216"/><rect style="fill:#fff;fill-opacity:.75649348;stroke:none;stroke-width:1.57000005;stroke-linecap:round;stroke-linejoin:round;stroke-miterlimit:4;stroke-dasharray:none;stroke-opacity:1" id="rect2133" width="6" height="6" x="-201" y="77" rx="2.216" ry="2.216"/><rect style="fill:#fff;fill-opacity:.75649348;stroke:none;stroke-width:1.57000005;stroke-linecap:round;stroke-linejoin:round;stroke-miterlimit:4;stroke-dasharray:none;stroke-opacity:1" id="rect2135" width="6" height="6" x="-201" y="87" rx="2.216" ry="2.216"/><rect style="fill:#fff;fill-opacity:.75649348;stroke:none;stroke-width:1.57000005;stroke-linecap:round;stroke-linejoin:round;stroke-miterlimit:4;stroke-dasharray:none;stroke-opacity:1" id="rect2137" width="6" height="6" x="-201" y="97" rx="2.216" ry="2.216"/></g><g id="g2139" transform="matrix(0,0.902607,0.902607,0,-242.3762,152.6584)"><rect style="fill:#fff;fill-opacity:.75649348;stroke:none;stroke-width:1.57000005;stroke-linecap:round;stroke-linejoin:round;stroke-miterlimit:4;stroke-dasharray:none;stroke-opacity:1" id="rect2141" width="6" height="6" x="92.538" y="108.527" rx="2.216" ry="2.216" transform="matrix(0,1,-1,0,0,0)"/><rect style="fill:#fff;fill-opacity:.75649348;stroke:none;stroke-width:1.57000005;stroke-linecap:round;stroke-linejoin:round;stroke-miterlimit:4;stroke-dasharray:none;stroke-opacity:1" id="rect2143" width="6" height="6" x="92.538" y="118.527" rx="2.216" ry="2.216" transform="matrix(0,1,-1,0,0,0)"/><rect style="fill:#fff;fill-opacity:.75649348;stroke:none;stroke-width:1.57000005;stroke-linecap:round;stroke-linejoin:round;stroke-miterlimit:4;stroke-dasharray:none;stroke-opacity:1" id="rect2145" width="6" height="6" x="92.538" y="128.527" rx="2.216" ry="2.216" transform="matrix(0,1,-1,0,0,0)"/></g><path id="path29122" d="M -149.25457,-1.6218953 C -142.88494,1.1643351 -123.37182,-0.047814535 -116.19885,-4.0402213 C -98.155909,8.8345595 -76.80575,53.442323 -82.768012,74.578736 C -99.4898,95.525749 -161.68425,94.489312 -177.81676,78.448281 C -189.21341,53.692319 -165.49221,10.223229 -149.25457,-1.6218953 z" style="fill:url(#linearGradient10108);fill-opacity:1;fill-rule:evenodd;stroke:url(#linearGradient10110);stroke-width:3.20452976;stroke-linecap:round;stroke-linejoin:round;stroke-miterlimit:4;stroke-dasharray:none;stroke-opacity:1"/><path id="path29120" d="M 89.984229,148.24525 A 3.9848089,3.9848089 0 1 1 89.984059,148.20844" transform="matrix(7.19585,0,0,7.438723,-751.1523,-1125.565)" style="fill:url(#radialGradient10033);fill-opacity:1;fill-rule:nonzero;stroke:url(#linearGradient10035);stroke-width:.43799999;stroke-linecap:round;stroke-linejoin:round;stroke-miterlimit:4;stroke-dasharray:none;stroke-opacity:1"/><path id="path3974" d="M -149.43568,-17.541174 A 14.889424,14.889424 0 1 1 -149.43631,-17.678728" transform="matrix(1.047632,0.766544,-0.846477,1.21315,18.62283,118.5187)" style="fill:url(#linearGradient10037);fill-opacity:1;stroke:none;stroke-width:1.57000005;stroke-linecap:round;stroke-linejoin:round;stroke-miterlimit:4;stroke-dasharray:none;stroke-opacity:.66666667"/><path id="path7504" d="M -143.33439,4.3465204 C -137.65572,6.8879359 -120.2593,5.7822974 -113.86443,2.1406807 C -97.778719,13.884226 -78.744551,54.572543 -84.06004,73.851806 C -98.967921,92.958301 -154.41576,92.012928 -168.79827,77.381356 C -178.95865,54.800571 -157.81063,15.150881 -143.33439,4.3465204 z" style="fill:url(#linearGradient10103);fill-opacity:1;fill-rule:evenodd;stroke:none;stroke-width:3.59594297;stroke-linecap:round;stroke-linejoin:round;stroke-miterlimit:4;stroke-dasharray:none;stroke-opacity:1"/><g id="g2449" transform="matrix(0,0.902607,0.902607,0,-240.0055,182.2829)"><rect id="rect2245" width="6" height="6" x="92.538" y="108.527" rx="2.216" ry="2.216" transform="matrix(0,1,-1,0,0,0)" style="fill:#fff;fill-opacity:.75649348;stroke:none;stroke-width:1.57000005;stroke-linecap:round;stroke-linejoin:round;stroke-miterlimit:4;stroke-dasharray:none;stroke-opacity:1"/><rect id="rect2247" width="6" height="6" x="92.538" y="118.527" rx="2.216" ry="2.216" transform="matrix(0,1,-1,0,0,0)" style="fill:#fff;fill-opacity:.75649348;stroke:none;stroke-width:1.57000005;stroke-linecap:round;stroke-linejoin:round;stroke-miterlimit:4;stroke-dasharray:none;stroke-opacity:1"/><rect id="rect2249" width="6" height="6" x="92.538" y="128.527" rx="2.216" ry="2.216" transform="matrix(0,1,-1,0,0,0)" style="fill:#fff;fill-opacity:.75649348;stroke:none;stroke-width:1.57000005;stroke-linecap:round;stroke-linejoin:round;stroke-miterlimit:4;stroke-dasharray:none;stroke-opacity:1"/></g><g id="g2411" transform="matrix(0,0.902607,0.902607,0,-216.5047,226.0354)"><rect id="rect2257" width="6" height="6" x="80" y="154" rx="2.216" ry="2.216" transform="matrix(0,1,-1,0,0,0)" style="fill:#fff;fill-opacity:.75649348;stroke:none;stroke-width:1.57000005;stroke-linecap:round;stroke-linejoin:round;stroke-miterlimit:4;stroke-dasharray:none;stroke-opacity:1"/><rect id="rect2259" width="6" height="6" x="80" y="164" rx="2.216" ry="2.216" transform="matrix(0,1,-1,0,0,0)" style="fill:#fff;fill-opacity:.75649348;stroke:none;stroke-width:1.57000005;stroke-linecap:round;stroke-linejoin:round;stroke-miterlimit:4;stroke-dasharray:none;stroke-opacity:1"/><rect id="rect2261" width="6" height="6" x="80" y="174" rx="2.216" ry="2.216" transform="matrix(0,1,-1,0,0,0)" style="fill:#fff;fill-opacity:.75649348;stroke:none;stroke-width:1.57000005;stroke-linecap:round;stroke-linejoin:round;stroke-miterlimit:4;stroke-dasharray:none;stroke-opacity:1"/><rect id="rect2263" width="6" height="6" x="80" y="184" rx="2.216" ry="2.216" transform="matrix(0,1,-1,0,0,0)" style="fill:#fff;fill-opacity:.75649348;stroke:none;stroke-width:1.57000005;stroke-linecap:round;stroke-linejoin:round;stroke-miterlimit:4;stroke-dasharray:none;stroke-opacity:1"/></g><g id="g2321" transform="matrix(0.902607,0,0,-0.902607,48.41177,130.359)"><rect id="rect2323" width="6" height="6" x="-201" y="57" rx="2.216" ry="2.216" style="fill:#fff;fill-opacity:.75649348;stroke:none;stroke-width:1.57000005;stroke-linecap:round;stroke-linejoin:round;stroke-miterlimit:4;stroke-dasharray:none;stroke-opacity:1"/><rect id="rect2325" width="6" height="6" x="-201" y="47" rx="2.216" ry="2.216" style="fill:#fff;fill-opacity:.75649348;stroke:none;stroke-width:1.57000005;stroke-linecap:round;stroke-linejoin:round;stroke-miterlimit:4;stroke-dasharray:none;stroke-opacity:1"/><rect id="rect2327" width="6" height="6" x="-201" y="67" rx="2.216" ry="2.216" style="fill:#fff;fill-opacity:.75649348;stroke:none;stroke-width:1.57000005;stroke-linecap:round;stroke-linejoin:round;stroke-miterlimit:4;stroke-dasharray:none;stroke-opacity:1"/><rect id="rect2329" width="6" height="6" x="-201" y="77" rx="2.216" ry="2.216" style="fill:#fff;fill-opacity:.75649348;stroke:none;stroke-width:1.57000005;stroke-linecap:round;stroke-linejoin:round;stroke-miterlimit:4;stroke-dasharray:none;stroke-opacity:1"/><rect id="rect2331" width="6" height="6" x="-201" y="87" rx="2.216" ry="2.216" style="fill:#fff;fill-opacity:.75649348;stroke:none;stroke-width:1.57000005;stroke-linecap:round;stroke-linejoin:round;stroke-miterlimit:4;stroke-dasharray:none;stroke-opacity:1"/><rect id="rect2333" width="6" height="6" x="-201" y="97" rx="2.216" ry="2.216" style="fill:#fff;fill-opacity:.75649348;stroke:none;stroke-width:1.57000005;stroke-linecap:round;stroke-linejoin:round;stroke-miterlimit:4;stroke-dasharray:none;stroke-opacity:1"/></g><g id="g1425" transform="matrix(-0.902607,0,0,0.902607,-282.845,-10.92929)"><rect id="rect1414" width="6" height="6" x="127" y="-102" rx="2.216" ry="2.216" transform="scale(-1,-1)" style="fill:#fff;fill-opacity:.75649348;stroke:none;stroke-width:1.57000005;stroke-linecap:round;stroke-linejoin:round;stroke-miterlimit:4;stroke-dasharray:none;stroke-opacity:1"/><rect id="rect1416" width="6" height="6" x="127" y="-92" rx="2.216" ry="2.216" transform="scale(-1,-1)" style="fill:#fff;fill-opacity:.75649348;stroke:none;stroke-width:1.57000005;stroke-linecap:round;stroke-linejoin:round;stroke-miterlimit:4;stroke-dasharray:none;stroke-opacity:1"/></g><rect style="fill:#fff;fill-opacity:.75649348;stroke:none;stroke-width:1.57000005;stroke-linecap:round;stroke-linejoin:round;stroke-miterlimit:4;stroke-dasharray:none;stroke-opacity:1" id="rect1423" width="5.416" height="5.416" x="-178.143" y="-75.3" rx="2" ry="2" transform="scale(1,-1)"/><g id="g1445" transform="matrix(-0.902607,0,0,0.902607,-276.5267,-7.739821)"><g id="g1429" transform="matrix(-1,0,0,-1,-373,151)"><rect style="fill:#fff;fill-opacity:.75649348;stroke:none;stroke-width:1.57000005;stroke-linecap:round;stroke-linejoin:round;stroke-miterlimit:4;stroke-dasharray:none;stroke-opacity:1" id="rect1431" width="6" height="6" x="-201" y="57" rx="2.216" ry="2.216"/><rect style="fill:#fff;fill-opacity:.75649348;stroke:none;stroke-width:1.57000005;stroke-linecap:round;stroke-linejoin:round;stroke-miterlimit:4;stroke-dasharray:none;stroke-opacity:1" id="rect1433" width="6" height="6" x="-201" y="47" rx="2.216" ry="2.216"/><rect style="fill:#fff;fill-opacity:.75649348;stroke:none;stroke-width:1.57000005;stroke-linecap:round;stroke-linejoin:round;stroke-miterlimit:4;stroke-dasharray:none;stroke-opacity:1" id="rect1435" width="6" height="6" x="-201" y="67" rx="2.216" ry="2.216"/><rect style="fill:#fff;fill-opacity:.75649348;stroke:none;stroke-width:1.57000005;stroke-linecap:round;stroke-linejoin:round;stroke-miterlimit:4;stroke-dasharray:none;stroke-opacity:1" id="rect1437" width="6" height="6" x="-201" y="77" rx="2.216" ry="2.216"/><rect style="fill:#fff;fill-opacity:.75649348;stroke:none;stroke-width:1.57000005;stroke-linecap:round;stroke-linejoin:round;stroke-miterlimit:4;stroke-dasharray:none;stroke-opacity:1" id="rect1439" width="6" height="6" x="-201" y="87" rx="2.216" ry="2.216"/><rect style="fill:#fff;fill-opacity:.75649348;stroke:none;stroke-width:1.57000005;stroke-linecap:round;stroke-linejoin:round;stroke-miterlimit:4;stroke-dasharray:none;stroke-opacity:1" id="rect1441" width="6" height="6" x="-201" y="97" rx="2.216" ry="2.216"/></g><rect id="rect1443" width="6" height="6" x="172" y="-44" rx="2.216" ry="2.216" transform="scale(-1,-1)" style="fill:#fff;fill-opacity:.75649348;stroke:none;stroke-width:1.57000005;stroke-linecap:round;stroke-linejoin:round;stroke-miterlimit:4;stroke-dasharray:none;stroke-opacity:1"/></g><g id="g1497" transform="matrix(-0.902607,0,0,0.902607,-276.5267,-7.739821)"><g id="g1455" transform="translate(-12.53681,-3)"><g id="g1457" transform="matrix(-1,0,0,-1,-373,151)"><rect id="rect1459" width="6" height="6" x="-201" y="57" rx="2.216" ry="2.216" style="fill:#fff;fill-opacity:.75649348;stroke:none;stroke-width:1.57000005;stroke-linecap:round;stroke-linejoin:round;stroke-miterlimit:4;stroke-dasharray:none;stroke-opacity:1"/><rect id="rect1461" width="6" height="6" x="-201" y="47" rx="2.216" ry="2.216" style="fill:#fff;fill-opacity:.75649348;stroke:none;stroke-width:1.57000005;stroke-linecap:round;stroke-linejoin:round;stroke-miterlimit:4;stroke-dasharray:none;stroke-opacity:1"/><rect id="rect1463" width="6" height="6" x="-201" y="67" rx="2.216" ry="2.216" style="fill:#fff;fill-opacity:.75649348;stroke:none;stroke-width:1.57000005;stroke-linecap:round;stroke-linejoin:round;stroke-miterlimit:4;stroke-dasharray:none;stroke-opacity:1"/><rect id="rect1465" width="6" height="6" x="-201" y="77" rx="2.216" ry="2.216" style="fill:#fff;fill-opacity:.75649348;stroke:none;stroke-width:1.57000005;stroke-linecap:round;stroke-linejoin:round;stroke-miterlimit:4;stroke-dasharray:none;stroke-opacity:1"/><rect id="rect1467" width="6" height="6" x="-201" y="87" rx="2.216" ry="2.216" style="fill:#fff;fill-opacity:.75649348;stroke:none;stroke-width:1.57000005;stroke-linecap:round;stroke-linejoin:round;stroke-miterlimit:4;stroke-dasharray:none;stroke-opacity:1"/><rect id="rect1469" width="6" height="6" x="-201" y="97" rx="2.216" ry="2.216" style="fill:#fff;fill-opacity:.75649348;stroke:none;stroke-width:1.57000005;stroke-linecap:round;stroke-linejoin:round;stroke-miterlimit:4;stroke-dasharray:none;stroke-opacity:1"/></g><rect style="fill:#fff;fill-opacity:.75649348;stroke:none;stroke-width:1.57000005;stroke-linecap:round;stroke-linejoin:round;stroke-miterlimit:4;stroke-dasharray:none;stroke-opacity:1" id="rect1471" width="6" height="6" x="172" y="-44" rx="2.216" ry="2.216" transform="scale(-1,-1)"/></g><rect id="rect1473" width="6" height="6" x="184.53" y="-32" rx="2.216" ry="2.216" transform="scale(-1,-1)" style="fill:#fff;fill-opacity:.75649348;stroke:none;stroke-width:1.57000005;stroke-linecap:round;stroke-linejoin:round;stroke-miterlimit:4;stroke-dasharray:none;stroke-opacity:1"/></g><g id="g1547" transform="matrix(0.902607,0,0,-0.902607,81.80823,122.6935)"><rect id="rect1549" width="6" height="6" x="-201" y="57" rx="2.216" ry="2.216" style="fill:#fff;fill-opacity:.75649348;stroke:none;stroke-width:1.57000005;stroke-linecap:round;stroke-linejoin:round;stroke-miterlimit:4;stroke-dasharray:none;stroke-opacity:1"/><rect id="rect1551" width="6" height="6" x="-201" y="47" rx="2.216" ry="2.216" style="fill:#fff;fill-opacity:.75649348;stroke:none;stroke-width:1.57000005;stroke-linecap:round;stroke-linejoin:round;stroke-miterlimit:4;stroke-dasharray:none;stroke-opacity:1"/><rect id="rect1553" width="6" height="6" x="-201" y="67" rx="2.216" ry="2.216" style="fill:#fff;fill-opacity:.75649348;stroke:none;stroke-width:1.57000005;stroke-linecap:round;stroke-linejoin:round;stroke-miterlimit:4;stroke-dasharray:none;stroke-opacity:1"/><rect id="rect1555" width="6" height="6" x="-201" y="77" rx="2.216" ry="2.216" style="fill:#fff;fill-opacity:.75649348;stroke:none;stroke-width:1.57000005;stroke-linecap:round;stroke-linejoin:round;stroke-miterlimit:4;stroke-dasharray:none;stroke-opacity:1"/><rect id="rect1557" width="6" height="6" x="-201" y="87" rx="2.216" ry="2.216" style="fill:#fff;fill-opacity:.75649348;stroke:none;stroke-width:1.57000005;stroke-linecap:round;stroke-linejoin:round;stroke-miterlimit:4;stroke-dasharray:none;stroke-opacity:1"/><rect id="rect1559" width="6" height="6" x="-201" y="97" rx="2.216" ry="2.216" style="fill:#fff;fill-opacity:.75649348;stroke:none;stroke-width:1.57000005;stroke-linecap:round;stroke-linejoin:round;stroke-miterlimit:4;stroke-dasharray:none;stroke-opacity:1"/></g><g id="g1561" transform="matrix(0,0.902607,0.902607,0,-174.1152,172.3543)"><rect id="rect1563" width="6" height="6" x="92.538" y="108.527" rx="2.216" ry="2.216" transform="matrix(0,1,-1,0,0,0)" style="fill:#fff;fill-opacity:.75649348;stroke:none;stroke-width:1.57000005;stroke-linecap:round;stroke-linejoin:round;stroke-miterlimit:4;stroke-dasharray:none;stroke-opacity:1"/><rect id="rect1565" width="6" height="6" x="92.538" y="118.527" rx="2.216" ry="2.216" transform="matrix(0,1,-1,0,0,0)" style="fill:#fff;fill-opacity:.75649348;stroke:none;stroke-width:1.57000005;stroke-linecap:round;stroke-linejoin:round;stroke-miterlimit:4;stroke-dasharray:none;stroke-opacity:1"/><rect id="rect1567" width="6" height="6" x="92.538" y="128.527" rx="2.216" ry="2.216" transform="matrix(0,1,-1,0,0,0)" style="fill:#fff;fill-opacity:.75649348;stroke:none;stroke-width:1.57000005;stroke-linecap:round;stroke-linejoin:round;stroke-miterlimit:4;stroke-dasharray:none;stroke-opacity:1"/></g><path id="rect32040" d="M -177.9525,-5.7871115 C -184.39901,-5.1206987 -189.45119,0.54310566 -189.45119,7.3260076 L -189.45119,29.270406 L -210.3579,29.538029 C -217.35671,29.570947 -222.93349,35.21651 -222.90194,42.383517 L -222.90194,45.594902 C -222.87038,52.761927 -217.09539,58.473326 -210.09657,58.440408 L -189.45119,58.440408 L -189.45119,78.243894 C -189.45119,85.478993 -183.71112,91.357014 -176.64583,91.357014 L -174.03248,91.357014 C -166.96719,91.357014 -161.22712,85.478993 -161.22712,78.243894 L -161.22712,58.172794 L -141.62707,58.172794 C -137.69025,58.154263 -133.9972,56.239608 -131.69637,53.355725 C -130.02106,51.149871 -129.06974,48.350877 -129.08304,45.327288 L -129.08304,42.115912 C -129.11459,34.948896 -134.62826,28.969856 -141.62707,29.002792 L -161.22712,29.270406 L -161.22712,7.3260076 C -161.22712,3.7084491 -162.84198,0.32004439 -165.14712,-2.0405072 C -167.4332,-4.2720135 -170.61023,-5.7871115 -174.03248,-5.7871115 L -176.64583,-5.7871115 C -177.0874,-5.7871115 -177.52273,-5.8315379 -177.9525,-5.7871115 z" style="fill:url(#linearGradient10049);fill-opacity:1;fill-rule:nonzero;stroke:#6c6c6c;stroke-width:3.20452976;stroke-linecap:round;stroke-linejoin:round;stroke-miterlimit:4;stroke-dasharray:none;stroke-opacity:1"/><path id="path8121" d="M -180.09696,-2.4199453 C -185.91866,-1.8436202 -190.48117,3.0545506 -190.48117,8.9205503 L -190.48117,27.898509 L -209.36156,28.12996 C -215.68203,28.15843 -220.7183,33.040826 -220.68981,39.239004 L -220.68981,42.016271 C -220.6613,48.214466 -215.44604,53.153793 -209.12556,53.125332 L -190.48117,53.125332 L -190.48117,70.251788 C -190.48117,76.508851 -185.29744,81.592283 -178.91694,81.592283 L -176.55688,81.592283 C -170.17637,81.592283 -164.99264,76.508851 -164.99264,70.251788 L -164.99264,52.893889 L -147.29227,52.893889 C -143.73702,52.877863 -140.40191,51.222035 -138.32408,48.727988 C -136.81114,46.820323 -135.95203,44.399699 -135.96404,41.784837 L -135.96404,39.007569 C -135.99253,32.809383 -140.9718,27.638587 -147.29227,27.667074 L -164.99264,27.898509 L -164.99264,8.9205503 C -164.99264,5.7920102 -166.45099,2.8616437 -168.53271,0.82019165 C -170.59722,-1.1096643 -173.46632,-2.4199453 -176.55688,-2.4199453 L -178.91694,-2.4199453 C -179.31571,-2.4199453 -179.70885,-2.4583692 -180.09696,-2.4199453 z" style="fill:url(#linearGradient10046);fill-opacity:1;fill-rule:nonzero;stroke:none;stroke-width:3.20452976;stroke-linecap:round;stroke-linejoin:round;stroke-miterlimit:4;stroke-dasharray:none;stroke-opacity:1"/></g></g></svg>