<svg xmlns="http://www.w3.org/2000/svg" xmlns:cc="http://web.resource.org/cc/" xmlns:svg="http://www.w3.org/2000/svg" xmlns:xlink="http://www.w3.org/1999/xlink" id="svg1579" width="640" height="480"><defs id="defs1581"><linearGradient id="linearGradient15050"><stop style="stop-color:#fff;stop-opacity:1" id="stop15052" offset="0"/><stop style="stop-color:#fff;stop-opacity:0" id="stop15054" offset="1"/></linearGradient><linearGradient id="linearGradient1556" x1="-281.985" x2="-281.985" y1="335.071" y2="350.791" gradientUnits="userSpaceOnUse" xlink:href="#linearGradient15050"/><linearGradient id="linearGradient15788"><stop id="stop15790" offset="0" style="stop-color:#ffc768;stop-opacity:1"/><stop style="stop-color:#ff8400;stop-opacity:1" id="stop15792" offset="1"/></linearGradient><radialGradient id="radialGradient1554" cx="-399.691" cy="462.252" r="37.197" fx="-399.691" fy="462.252" gradientTransform="matrix(1.018420,-9.600252e-6,9.478784e-6,1.005536,7.358175,-2.562504)" gradientUnits="userSpaceOnUse" xlink:href="#linearGradient15788"/><linearGradient id="linearGradient11116"><stop style="stop-color:#143e7b;stop-opacity:1" id="stop11118" offset="0"/><stop style="stop-color:#93aacc;stop-opacity:1" id="stop11120" offset="1"/></linearGradient><linearGradient id="linearGradient1545" x1="-72.21" x2="-69.822" y1="264.439" y2="264.439" gradientTransform="matrix(1.042705,0.000000,0.000000,1.042706,290.2457,240.0093)" gradientUnits="userSpaceOnUse" xlink:href="#linearGradient11116"/><linearGradient id="linearGradient6050"><stop id="stop6052" offset="0" style="stop-color:#cfcfcf;stop-opacity:1"/><stop id="stop6054" offset="1" style="stop-color:#cfcfcf;stop-opacity:0"/></linearGradient><linearGradient id="linearGradient3866"><stop style="stop-color:#cfcfcf;stop-opacity:1" id="stop3868" offset="0"/><stop style="stop-color:#fff;stop-opacity:1" id="stop3870" offset="1"/></linearGradient><linearGradient id="linearGradient2805"><stop style="stop-color:#143e7b;stop-opacity:1" id="stop2807" offset="0"/><stop style="stop-color:#93aacc;stop-opacity:0" id="stop2809" offset="1"/></linearGradient><linearGradient id="linearGradient1641"><stop id="stop1643" offset="0" style="stop-color:#143e7b;stop-opacity:1"/><stop id="stop1645" offset="1" style="stop-color:#93aacc;stop-opacity:1"/></linearGradient><linearGradient id="linearGradient15929"><stop style="stop-color:#cbcbcb;stop-opacity:1" id="stop15931" offset="0"/><stop id="stop15933" offset=".5" style="stop-color:#fff;stop-opacity:1"/><stop style="stop-color:#cbcbcb;stop-opacity:1" id="stop15935" offset="1"/></linearGradient><linearGradient id="linearGradient1740" x1="-72.21" x2="-69.822" y1="264.439" y2="264.439" gradientTransform="matrix(1.042705,0.000000,0.000000,1.042706,290.2457,240.0093)" gradientUnits="userSpaceOnUse" xlink:href="#linearGradient11116"/><radialGradient id="radialGradient1742" cx="-399.691" cy="462.252" r="37.197" fx="-399.691" fy="462.252" gradientTransform="matrix(1.018420,-9.600252e-6,9.478784e-6,1.005536,7.358175,-2.562504)" gradientUnits="userSpaceOnUse" xlink:href="#linearGradient15788"/><linearGradient id="linearGradient1744" x1="-281.985" x2="-281.985" y1="335.071" y2="350.791" gradientUnits="userSpaceOnUse" xlink:href="#linearGradient15050"/><linearGradient id="linearGradient1749" x1="99.049" x2="107.362" y1="143.632" y2="151.419" gradientTransform="matrix(1.060622,0.000000,0.000000,1.138351,206.2376,42.11620)" gradientUnits="userSpaceOnUse" xlink:href="#linearGradient11116"/><linearGradient id="linearGradient1760" x1="-72.21" x2="-69.822" y1="264.439" y2="264.439" gradientTransform="matrix(1.042705,0.000000,0.000000,1.042706,476.5620,-68.42237)" gradientUnits="userSpaceOnUse" xlink:href="#linearGradient11116"/><linearGradient id="linearGradient1763" x1="17.298" x2="17.252" y1="33.821" y2="45.417" gradientTransform="matrix(1.560596,-3.484995e-3,6.195115e-3,0.938289,280.5425,175.3846)" gradientUnits="userSpaceOnUse" xlink:href="#linearGradient2805"/><linearGradient id="linearGradient1766" x1="17.243" x2="17.269" y1="47.842" y2="41.283" gradientTransform="matrix(1.560596,-3.484995e-3,6.195116e-3,0.938289,280.5425,175.3846)" gradientUnits="userSpaceOnUse" xlink:href="#linearGradient11116"/><linearGradient id="linearGradient1769" x1="17.293" x2="17.293" y1="35.513" y2="23.828" gradientTransform="matrix(-1.683591,0.000000,0.000000,-0.938296,422.0372,240.5332)" gradientUnits="userSpaceOnUse" xlink:href="#linearGradient2805"/><linearGradient id="linearGradient1772" x1="17.293" x2="17.293" y1="21.471" y2="28.477" gradientTransform="matrix(-1.686098,0.000000,0.000000,-0.938296,422.1056,240.5332)" gradientUnits="userSpaceOnUse" xlink:href="#linearGradient11116"/><linearGradient id="linearGradient1775" x1="31.449" x2="31.449" y1="41.978" y2="24.899" gradientTransform="matrix(3.000618,0.000000,0.000000,0.860174,-444.8505,-233.4150)" gradientUnits="userSpaceOnUse" xlink:href="#linearGradient11116"/><linearGradient id="linearGradient1777" x1="31.29" x2="31.29" y1="47.526" y2="31.339" gradientTransform="matrix(2.917539,0.000000,0.000000,0.907597,-441.7729,-240.4408)" gradientUnits="userSpaceOnUse" xlink:href="#linearGradient11116"/><linearGradient id="linearGradient1780" x1="31.316" x2="31.316" y1="17.585" y2="26.235" gradientTransform="matrix(2.922574,0.000000,0.000000,0.907597,-442.0105,-239.5334)" gradientUnits="userSpaceOnUse" xlink:href="#linearGradient11116"/><linearGradient id="linearGradient1782" x1="33.026" x2="33.205" y1="51.316" y2="31.565" gradientTransform="matrix(2.922574,0.000000,0.000000,0.907597,-442.0105,-240.4408)" gradientUnits="userSpaceOnUse" xlink:href="#linearGradient11116"/><linearGradient id="linearGradient1390" x1="99.049" x2="107.362" y1="143.632" y2="151.419" gradientTransform="matrix(1.060622,0.000000,0.000000,1.138351,206.8443,101.6421)" gradientUnits="userSpaceOnUse" xlink:href="#linearGradient11116"/><linearGradient id="linearGradient1401" x1="-72.21" x2="-69.822" y1="264.439" y2="264.439" gradientTransform="matrix(1.042705,0.000000,0.000000,1.042706,477.1737,-9.381905)" gradientUnits="userSpaceOnUse" xlink:href="#linearGradient11116"/><linearGradient id="linearGradient1404" x1="17.298" x2="17.252" y1="33.821" y2="45.417" gradientTransform="matrix(2.269182,-3.484995e-3,9.007998e-3,0.938289,270.3501,235.1699)" gradientUnits="userSpaceOnUse" xlink:href="#linearGradient6050"/><linearGradient id="linearGradient1407" x1="17.243" x2="17.269" y1="47.842" y2="41.283" gradientTransform="matrix(2.269182,-3.484995e-3,9.007998e-3,0.938289,270.3501,235.1699)" gradientUnits="userSpaceOnUse" xlink:href="#linearGradient3866"/><linearGradient id="linearGradient1410" x1="17.293" x2="17.293" y1="35.513" y2="23.828" gradientTransform="matrix(-1.939358,0.000000,0.000000,-0.938296,426.1159,300.1456)" gradientUnits="userSpaceOnUse" xlink:href="#linearGradient6050"/><linearGradient id="linearGradient1413" x1="17.293" x2="17.293" y1="21.471" y2="28.477" gradientTransform="matrix(-1.668737,0.000000,0.000000,-0.938296,421.8933,300.1456)" gradientUnits="userSpaceOnUse" xlink:href="#linearGradient3866"/><linearGradient id="linearGradient1416" x1="31.449" x2="31.449" y1="41.978" y2="24.899" gradientTransform="matrix(3.000618,0.000000,0.000000,0.860174,-445.4572,-292.9409)" gradientUnits="userSpaceOnUse" xlink:href="#linearGradient6050"/><linearGradient id="linearGradient1418" x1="31.29" x2="31.29" y1="47.526" y2="31.339" gradientTransform="matrix(2.917539,0.000000,0.000000,0.907597,-442.3796,-299.9667)" gradientUnits="userSpaceOnUse" xlink:href="#linearGradient3866"/><linearGradient id="linearGradient1421" x1="31.316" x2="31.316" y1="17.585" y2="26.235" gradientTransform="matrix(2.922574,0.000000,0.000000,0.907597,-442.6172,-299.0593)" gradientUnits="userSpaceOnUse" xlink:href="#linearGradient3866"/><linearGradient id="linearGradient1423" x1="33.026" x2="33.205" y1="51.316" y2="31.565" gradientTransform="matrix(2.922574,0.000000,0.000000,0.907597,-442.6172,-299.9667)" gradientUnits="userSpaceOnUse" xlink:href="#linearGradient3866"/><linearGradient id="linearGradient1450" x1="-72.21" x2="-69.822" y1="264.439" y2="264.439" gradientTransform="matrix(1.042705,0.000000,0.000000,1.042706,476.9887,-107.3278)" gradientUnits="userSpaceOnUse" xlink:href="#linearGradient11116"/><radialGradient id="radialGradient1452" cx="-399.691" cy="462.252" r="37.197" fx="-399.691" fy="462.252" gradientTransform="matrix(1.018420,-9.600252e-6,9.478784e-6,1.005536,7.358175,-2.562504)" gradientUnits="userSpaceOnUse" xlink:href="#linearGradient15788"/><linearGradient id="linearGradient1454" x1="-281.985" x2="-281.985" y1="335.071" y2="350.791" gradientUnits="userSpaceOnUse" xlink:href="#linearGradient15050"/><linearGradient id="linearGradient1456" x1="99.049" x2="107.362" y1="143.632" y2="151.419" gradientTransform="matrix(1.060622,0.000000,0.000000,1.138351,204.6609,2.890897)" gradientUnits="userSpaceOnUse" xlink:href="#linearGradient11116"/><linearGradient id="linearGradient1508" x1="-72.21" x2="-69.822" y1="264.439" y2="264.439" gradientTransform="matrix(1.042705,0.000000,0.000000,1.042706,477.3386,37.13942)" gradientUnits="userSpaceOnUse" xlink:href="#linearGradient11116"/><linearGradient id="linearGradient1569" x1="-72.21" x2="-69.822" y1="264.439" y2="264.439" gradientTransform="matrix(1.042705,0.000000,0.000000,1.042706,476.5620,-68.42237)" gradientUnits="userSpaceOnUse" xlink:href="#linearGradient11116"/><linearGradient id="linearGradient1589" x1="-72.21" x2="-69.822" y1="264.439" y2="264.439" gradientTransform="matrix(1.042705,0.000000,0.000000,1.042706,476.4800,77.26042)" gradientUnits="userSpaceOnUse" xlink:href="#linearGradient11116"/><linearGradient id="linearGradient1640" x1="17.298" x2="17.252" y1="33.821" y2="45.417" gradientTransform="matrix(-1.561490,3.484995e-3,-6.198665e-3,-0.938289,421.3216,389.0684)" gradientUnits="userSpaceOnUse" xlink:href="#linearGradient2805"/><linearGradient id="linearGradient1643" x1="17.243" x2="17.269" y1="47.842" y2="41.283" gradientTransform="matrix(-1.561490,3.484995e-3,-6.198666e-3,-0.938289,421.3216,389.0684)" gradientUnits="userSpaceOnUse" xlink:href="#linearGradient11116"/><linearGradient id="linearGradient1646" x1="17.293" x2="17.293" y1="35.513" y2="23.828" gradientTransform="matrix(1.684556,0.000000,0.000000,0.938296,279.7459,323.9198)" gradientUnits="userSpaceOnUse" xlink:href="#linearGradient2805"/><linearGradient id="linearGradient1649" x1="17.293" x2="17.293" y1="21.471" y2="28.477" gradientTransform="matrix(1.687064,0.000000,0.000000,0.938296,279.6774,323.9198)" gradientUnits="userSpaceOnUse" xlink:href="#linearGradient11116"/><linearGradient id="linearGradient1652" x1="31.449" x2="31.449" y1="41.978" y2="24.899" gradientTransform="matrix(3.002337,0.000000,0.000000,0.860174,256.9195,331.0380)" gradientUnits="userSpaceOnUse" xlink:href="#linearGradient11116"/><linearGradient id="linearGradient1654" x1="31.29" x2="31.29" y1="47.526" y2="31.339" gradientTransform="matrix(2.919211,0.000000,0.000000,0.907597,259.9988,324.0122)" gradientUnits="userSpaceOnUse" xlink:href="#linearGradient11116"/><linearGradient id="linearGradient1657" x1="31.316" x2="31.316" y1="17.585" y2="26.235" gradientTransform="matrix(2.924249,0.000000,0.000000,0.907597,259.7611,324.9196)" gradientUnits="userSpaceOnUse" xlink:href="#linearGradient11116"/><linearGradient id="linearGradient1659" x1="33.026" x2="33.205" y1="51.316" y2="31.565" gradientTransform="matrix(2.924249,0.000000,0.000000,0.907597,259.7611,324.0122)" gradientUnits="userSpaceOnUse" xlink:href="#linearGradient11116"/><linearGradient id="linearGradient1802" x1="17.298" x2="17.252" y1="33.821" y2="45.417" gradientTransform="matrix(-1.561490,3.484995e-3,-6.198665e-3,-0.938289,420.9274,354.1966)" gradientUnits="userSpaceOnUse" xlink:href="#linearGradient6050"/><linearGradient id="linearGradient1805" x1="17.243" x2="17.269" y1="47.842" y2="41.283" gradientTransform="matrix(-1.561490,3.484995e-3,-6.198666e-3,-0.938289,420.9274,354.1966)" gradientUnits="userSpaceOnUse" xlink:href="#linearGradient3866"/><linearGradient id="linearGradient1808" x1="17.293" x2="17.293" y1="35.513" y2="23.828" gradientTransform="matrix(1.684556,0.000000,0.000000,0.938296,279.3517,289.0480)" gradientUnits="userSpaceOnUse" xlink:href="#linearGradient6050"/><linearGradient id="linearGradient1811" x1="17.293" x2="17.293" y1="21.471" y2="28.477" gradientTransform="matrix(1.687064,0.000000,0.000000,0.938296,279.2832,289.0480)" gradientUnits="userSpaceOnUse" xlink:href="#linearGradient3866"/><linearGradient id="linearGradient1814" x1="31.449" x2="31.449" y1="41.978" y2="24.899" gradientTransform="matrix(3.002337,0.000000,0.000000,0.860174,256.5253,296.1662)" gradientUnits="userSpaceOnUse" xlink:href="#linearGradient3866"/><linearGradient id="linearGradient1816" x1="31.29" x2="31.29" y1="47.526" y2="31.339" gradientTransform="matrix(2.919211,0.000000,0.000000,0.907597,259.6046,289.1404)" gradientUnits="userSpaceOnUse" xlink:href="#linearGradient3866"/><linearGradient id="linearGradient1819" x1="31.316" x2="31.316" y1="17.585" y2="26.235" gradientTransform="matrix(2.924249,0.000000,0.000000,0.907597,259.3669,290.0478)" gradientUnits="userSpaceOnUse" xlink:href="#linearGradient3866"/><linearGradient id="linearGradient1821" x1="33.026" x2="33.205" y1="51.316" y2="31.565" gradientTransform="matrix(2.924249,0.000000,0.000000,0.907597,259.3669,289.1404)" gradientUnits="userSpaceOnUse" xlink:href="#linearGradient3866"/></defs><metadata id="metadata1584"/><g id="layer1"><rect style="opacity:1;fill:none;fill-opacity:1;fill-rule:nonzero;stroke:#646464;stroke-width:2.3988113;stroke-linecap:round;stroke-linejoin:round;stroke-miterlimit:4;stroke-dasharray:none;stroke-opacity:1" id="rect1493" width="91.107" height="28.206" x="-397.152" y="-282.415" ry="3.237" transform="scale(-1.000000,-1.000000)"/><rect style="opacity:1;fill:url(#linearGradient1421);fill-opacity:1;fill-rule:nonzero;stroke:url(#linearGradient1423);stroke-width:1.0289954;stroke-linecap:round;stroke-linejoin:round;stroke-miterlimit:4;stroke-dasharray:none;stroke-opacity:1" id="rect1495" width="91.675" height="28.47" x="-396.931" y="-282.149" ry="2.75" transform="scale(-1.000000,-1.000000)"/><rect style="opacity:1;fill:url(#linearGradient1416);fill-opacity:1;fill-rule:nonzero;stroke:url(#linearGradient1418);stroke-width:1.0284233;stroke-linecap:round;stroke-linejoin:round;stroke-miterlimit:4;stroke-dasharray:none;stroke-opacity:1" id="rect1497" width="91.671" height="20.875" x="-396.926" y="-274.554" ry="2.696" transform="scale(-1.000000,-1.000000)"/><path style="fill:url(#linearGradient1413);fill-opacity:1;fill-rule:evenodd;stroke:none;stroke-width:1px;stroke-linecap:round;stroke-linejoin:round;stroke-opacity:1" id="path1499" d="M 395.59391,279.76603 C 395.59391,279.76603 389.66591,267.45482 395.85582,255.26092 C 395.85582,255.26092 395.53272,279.79223 395.77972,279.99940"/><path style="fill:url(#linearGradient1410);fill-opacity:1;fill-rule:evenodd;stroke:none;stroke-width:1px;stroke-linecap:round;stroke-linejoin:round;stroke-opacity:1" id="path1501" d="M 395.55144,279.76603 C 395.55144,279.76603 388.66209,267.45482 395.85582,255.26092 C 395.85582,255.26092 395.48032,279.79223 395.76737,279.99940"/><path style="fill:url(#linearGradient1407);fill-opacity:1;fill-rule:evenodd;stroke:none;stroke-width:1px;stroke-linecap:round;stroke-linejoin:round;stroke-opacity:1" id="path1503" d="M 306.30824,255.49431 C 306.30824,255.49431 314.48746,267.79302 306.18733,279.99975 C 306.18733,279.99975 306.10171,255.70180 305.76385,255.49515"/><path style="fill:url(#linearGradient1404);fill-opacity:1;fill-rule:evenodd;stroke:none;stroke-width:1px;stroke-linecap:round;stroke-linejoin:round;stroke-opacity:1" id="path1505" d="M 306.30824,255.49431 C 306.30824,255.49431 314.48746,267.79302 306.18733,279.99975 C 306.18733,279.99975 306.10171,255.70180 305.76385,255.49515"/><text style="font-size:12.512466px;font-style:normal;font-weight:400;fill:url(#linearGradient1401);fill-opacity:1;stroke:none;stroke-width:1px;stroke-linecap:butt;stroke-linejoin:miter;stroke-opacity:1;font-family:Bitstream Vera Sans" id="text1517" x="340.393" y="264.246" transform="scale(0.991845,1.008222)" xml:space="preserve"><tspan id="tspan1519" x="340.393" y="264.246" style="font-size:8.3416433px;font-style:normal;font-variant:normal;font-weight:700;font-stretch:normal;text-align:start;line-height:125%;writing-mode:lr-tb;text-anchor:start;fill:url(#linearGradient1401);fill-opacity:1;font-family:Bitstream Vera Sans">Add others</tspan><tspan style="font-size:8.3416433px;font-style:normal;font-variant:normal;font-weight:700;font-stretch:normal;text-align:start;line-height:125%;writing-mode:lr-tb;text-anchor:start;fill:url(#linearGradient1401);fill-opacity:1;font-family:Bitstream Vera Sans" id="tspan1558" x="340.393" y="274.673">to the chat</tspan></text><g id="g1547" transform="translate(185.7596,-282.0491)"><path id="path1447" d="M -362.74475 462.25150 A 36.946224 36.466404 0 1 1 -436.63720,462.25150 A 36.946224 36.466404 0 1 1 -362.74475 462.25150 z" transform="matrix(0.289811,0.000000,0.000000,0.289811,255.5689,414.6715)" style="opacity:1;fill:url(#radialGradient1554);fill-opacity:1;fill-rule:nonzero;stroke:#b3b3b3;stroke-width:1.872668;stroke-linecap:round;stroke-linejoin:round;stroke-miterlimit:4;stroke-dasharray:none;stroke-opacity:1"/><path id="path1449" d="M -273.91787,347.03445 A 8.0669918,7.9770255 0 1 1 -273.91822,346.96076" transform="matrix(0.000000,1.066412,-0.862755,0.000000,442.4069,849.2921)" style="opacity:1;fill:url(#linearGradient1556);fill-opacity:1;fill-rule:nonzero;stroke:none;stroke-width:.39899999;stroke-linecap:round;stroke-linejoin:round;stroke-miterlimit:4;stroke-dasharray:none;stroke-opacity:1"/><path id="path1451" d="M -407.84793 455.05420 A 6.7174954 7.1973166 0 1 1 -421.28293,455.05420 A 6.7174954 7.1973166 0 1 1 -407.84793 455.05420 z" transform="matrix(0.289811,0.000000,0.000000,0.289811,256.5245,414.4390)" style="opacity:1;fill:#fff;fill-opacity:1;fill-rule:nonzero;stroke:#b3b3b3;stroke-width:.93405789;stroke-linecap:round;stroke-linejoin:round;stroke-miterlimit:4;stroke-dasharray:none;stroke-opacity:1"/><path id="path1453" d="M -407.84793 455.05420 A 6.7174954 7.1973166 0 1 1 -421.28293,455.05420 A 6.7174954 7.1973166 0 1 1 -407.84793 455.05420 z" transform="matrix(0.289811,0.000000,0.000000,0.289811,263.0559,414.5828)" style="opacity:1;fill:#fff;fill-opacity:1;fill-rule:nonzero;stroke:#b3b3b3;stroke-width:.93398726;stroke-linecap:round;stroke-linejoin:round;stroke-miterlimit:4;stroke-dasharray:none;stroke-opacity:1"/><path id="path1455" d="M 134.07267,550.97794 C 134.07267,550.97794 139.20281,561.02288 145.34551,551.08684" style="fill:none;fill-opacity:1;fill-rule:evenodd;stroke:#fff;stroke-width:1.6310863;stroke-linecap:round;stroke-linejoin:round;stroke-miterlimit:4;stroke-dasharray:none;stroke-opacity:1"/></g><path style="opacity:1;fill:url(#linearGradient1390);fill-opacity:1;fill-rule:nonzero;stroke:#6c6c6c;stroke-width:.4812735;stroke-linecap:round;stroke-linejoin:round;stroke-miterlimit:4;stroke-dasharray:none;stroke-opacity:1" id="path1457" d="M 317.32818,262.72854 C 316.22099,262.72854 315.35419,263.63258 315.35419,264.73979 L 315.35419,268.09184 L 312.30010,268.12908 C 311.26851,268.13412 310.43348,268.95976 310.43784,269.99134 L 310.43784,270.69899 C 310.44221,271.73056 311.26851,272.56628 312.30010,272.56125 L 315.35419,272.56125 L 315.35419,275.57809 C 315.35419,276.68528 316.22099,277.58933 317.32818,277.58932 L 317.51440,277.58932 C 318.62159,277.58932 319.48838,276.68529 319.48838,275.57809 L 319.48838,272.52400 L 322.39351,272.52400 C 323.42507,272.51896 324.26015,271.69334 324.25576,270.66175 L 324.25576,269.91685 C 324.25138,268.88526 323.42507,268.04956 322.39351,268.05460 L 319.48838,268.09184 L 319.48838,264.73979 C 319.48838,263.63259 318.62159,262.72854 317.51440,262.72854 L 317.32818,262.72854 z"/><g id="g6868"><rect id="rect1690" width="91.107" height="28.206" x="-396.545" y="-222.889" ry="3.237" transform="scale(-1.000000,-1.000000)" style="opacity:1;fill:none;fill-opacity:1;fill-rule:nonzero;stroke:#646464;stroke-width:2.3988113;stroke-linecap:round;stroke-linejoin:round;stroke-miterlimit:4;stroke-dasharray:none;stroke-opacity:1"/><rect id="rect1692" width="91.675" height="28.47" x="-396.324" y="-222.623" ry="2.75" transform="scale(-1.000000,-1.000000)" style="opacity:1;fill:url(#linearGradient1780);fill-opacity:1;fill-rule:nonzero;stroke:url(#linearGradient1782);stroke-width:1.0289954;stroke-linecap:round;stroke-linejoin:round;stroke-miterlimit:4;stroke-dasharray:none;stroke-opacity:1"/><rect id="rect1694" width="91.671" height="20.875" x="-396.319" y="-215.028" ry="2.696" transform="scale(-1.000000,-1.000000)" style="opacity:1;fill:url(#linearGradient1775);fill-opacity:1;fill-rule:nonzero;stroke:url(#linearGradient1777);stroke-width:1.0284233;stroke-linecap:round;stroke-linejoin:round;stroke-miterlimit:4;stroke-dasharray:none;stroke-opacity:1"/><path id="path1696" d="M 395.53261,220.15367 C 395.53261,220.15367 389.54294,207.84246 395.79725,195.64856 C 395.79725,195.64856 395.47078,220.17987 395.72035,220.38704" style="fill:url(#linearGradient1772);fill-opacity:1;fill-rule:evenodd;stroke:none;stroke-width:1px;stroke-linecap:round;stroke-linejoin:round;stroke-opacity:1"/><path id="path1698" d="M 395.50366,220.15367 C 395.50366,220.15367 389.52289,207.84246 395.76790,195.64856 C 395.76790,195.64856 395.44192,220.17987 395.69111,220.38704" style="fill:url(#linearGradient1769);fill-opacity:1;fill-rule:evenodd;stroke:none;stroke-width:1px;stroke-linecap:round;stroke-linejoin:round;stroke-opacity:1"/><path id="path1700" d="M 305.27216,195.70902 C 305.27216,195.70902 310.89729,208.00773 305.18900,220.21446 C 305.18900,220.21446 305.13012,195.91651 304.89776,195.70986" style="fill:url(#linearGradient1766);fill-opacity:1;fill-rule:evenodd;stroke:none;stroke-width:1px;stroke-linecap:round;stroke-linejoin:round;stroke-opacity:1"/><path id="path1702" d="M 305.27216,195.70902 C 305.27216,195.70902 310.89729,208.00773 305.18900,220.21446 C 305.18900,220.21446 305.13012,195.91651 304.89776,195.70986" style="fill:url(#linearGradient1763);fill-opacity:1;fill-rule:evenodd;stroke:none;stroke-width:1px;stroke-linecap:round;stroke-linejoin:round;stroke-opacity:1"/><text id="text1704" x="339.781" y="205.205" transform="scale(0.991845,1.008222)" xml:space="preserve" style="font-size:12.512466px;font-style:normal;font-weight:400;fill:url(#linearGradient1760);fill-opacity:1;stroke:none;stroke-width:1px;stroke-linecap:butt;stroke-linejoin:miter;stroke-opacity:1;font-family:Bitstream Vera Sans"><tspan style="font-size:8.3416433px;font-style:normal;font-variant:normal;font-weight:700;font-stretch:normal;text-align:start;line-height:125%;writing-mode:lr-tb;text-anchor:start;fill:#1b3a63;fill-opacity:1;font-family:Bitstream Vera Sans" id="tspan1706" x="339.781" y="205.205">Add others</tspan><tspan id="tspan1708" x="339.781" y="215.633" style="font-size:8.3416433px;font-style:normal;font-variant:normal;font-weight:700;font-stretch:normal;text-align:start;line-height:125%;writing-mode:lr-tb;text-anchor:start;fill:#1b3a63;fill-opacity:1;font-family:Bitstream Vera Sans">to the chat</tspan></text><g id="g1710" transform="translate(185.1529,-341.5750)"><path style="opacity:1;fill:url(#radialGradient1742);fill-opacity:1;fill-rule:nonzero;stroke:#b3b3b3;stroke-width:1.872668;stroke-linecap:round;stroke-linejoin:round;stroke-miterlimit:4;stroke-dasharray:none;stroke-opacity:1" id="path1712" d="M -362.74475 462.25150 A 36.946224 36.466404 0 1 1 -436.63720,462.25150 A 36.946224 36.466404 0 1 1 -362.74475 462.25150 z" transform="matrix(0.289811,0.000000,0.000000,0.289811,255.5689,414.6715)"/><path style="opacity:1;fill:url(#linearGradient1744);fill-opacity:1;fill-rule:nonzero;stroke:none;stroke-width:.39899999;stroke-linecap:round;stroke-linejoin:round;stroke-miterlimit:4;stroke-dasharray:none;stroke-opacity:1" id="path1714" d="M -273.91787,347.03445 A 8.0669918,7.9770255 0 1 1 -273.91822,346.96076" transform="matrix(0.000000,1.066412,-0.862755,0.000000,442.4069,849.2921)"/><path style="opacity:1;fill:#fff;fill-opacity:1;fill-rule:nonzero;stroke:#b3b3b3;stroke-width:.93405789;stroke-linecap:round;stroke-linejoin:round;stroke-miterlimit:4;stroke-dasharray:none;stroke-opacity:1" id="path1716" d="M -407.84793 455.05420 A 6.7174954 7.1973166 0 1 1 -421.28293,455.05420 A 6.7174954 7.1973166 0 1 1 -407.84793 455.05420 z" transform="matrix(0.289811,0.000000,0.000000,0.289811,256.5245,414.4390)"/><path style="opacity:1;fill:#fff;fill-opacity:1;fill-rule:nonzero;stroke:#b3b3b3;stroke-width:.93398726;stroke-linecap:round;stroke-linejoin:round;stroke-miterlimit:4;stroke-dasharray:none;stroke-opacity:1" id="path1718" d="M -407.84793 455.05420 A 6.7174954 7.1973166 0 1 1 -421.28293,455.05420 A 6.7174954 7.1973166 0 1 1 -407.84793 455.05420 z" transform="matrix(0.289811,0.000000,0.000000,0.289811,263.0559,414.5828)"/><path style="fill:none;fill-opacity:1;fill-rule:evenodd;stroke:#fff;stroke-width:1.6310863;stroke-linecap:round;stroke-linejoin:round;stroke-miterlimit:4;stroke-dasharray:none;stroke-opacity:1" id="path1720" d="M 134.07267,550.97794 C 134.07267,550.97794 139.20281,561.02288 145.34551,551.08684"/></g><path id="path1722" d="M 316.72148,203.20264 C 315.61429,203.20264 314.74749,204.10668 314.74749,205.21389 L 314.74749,208.56594 L 311.69340,208.60318 C 310.66181,208.60822 309.82678,209.43386 309.83114,210.46544 L 309.83114,211.17309 C 309.83551,212.20466 310.66181,213.04038 311.69340,213.03535 L 314.74749,213.03535 L 314.74749,216.05219 C 314.74749,217.15938 315.61429,218.06343 316.72148,218.06342 L 316.90770,218.06342 C 318.01489,218.06342 318.88168,217.15939 318.88168,216.05219 L 318.88168,212.99810 L 321.78681,212.99810 C 322.81837,212.99306 323.65345,212.16744 323.64906,211.13585 L 323.64906,210.39095 C 323.64468,209.35936 322.81837,208.52366 321.78681,208.52870 L 318.88168,208.56594 L 318.88168,205.21389 C 318.88168,204.10669 318.01489,203.20264 316.90770,203.20264 L 316.72148,203.20264 z" style="opacity:1;fill:url(#linearGradient1749);fill-opacity:1;fill-rule:nonzero;stroke:#6c6c6c;stroke-width:.4812735;stroke-linecap:round;stroke-linejoin:round;stroke-miterlimit:4;stroke-dasharray:none;stroke-opacity:1"/></g><text style="font-size:12.512466px;font-style:normal;font-weight:400;fill:url(#linearGradient1450);fill-opacity:1;stroke:none;stroke-width:1px;stroke-linecap:butt;stroke-linejoin:miter;stroke-opacity:1;font-family:Bitstream Vera Sans" id="text1430" x="340.208" y="166.3" transform="scale(0.991845,1.008222)" xml:space="preserve"><tspan id="tspan1432" x="340.208" y="166.3" style="font-size:8.3416433px;font-style:normal;font-variant:normal;font-weight:700;font-stretch:normal;text-align:start;line-height:125%;writing-mode:lr-tb;text-anchor:start;fill:url(#linearGradient1450);fill-opacity:1;font-family:Bitstream Vera Sans">Add others</tspan><tspan style="font-size:8.3416433px;font-style:normal;font-variant:normal;font-weight:700;font-stretch:normal;text-align:start;line-height:125%;writing-mode:lr-tb;text-anchor:start;fill:url(#linearGradient1450);fill-opacity:1;font-family:Bitstream Vera Sans" id="tspan1434" x="340.208" y="176.727">to the chat</tspan></text><g id="g1436" transform="translate(183.5761,-380.8003)"><path id="path1438" d="M -362.74475 462.25150 A 36.946224 36.466404 0 1 1 -436.63720,462.25150 A 36.946224 36.466404 0 1 1 -362.74475 462.25150 z" transform="matrix(0.289811,0.000000,0.000000,0.289811,255.5689,414.6715)" style="opacity:1;fill:url(#radialGradient1452);fill-opacity:1;fill-rule:nonzero;stroke:#b3b3b3;stroke-width:1.872668;stroke-linecap:round;stroke-linejoin:round;stroke-miterlimit:4;stroke-dasharray:none;stroke-opacity:1"/><path id="path1440" d="M -273.91787,347.03445 A 8.0669918,7.9770255 0 1 1 -273.91822,346.96076" transform="matrix(0.000000,1.066412,-0.862755,0.000000,442.4069,849.2921)" style="opacity:1;fill:url(#linearGradient1454);fill-opacity:1;fill-rule:nonzero;stroke:none;stroke-width:.39899999;stroke-linecap:round;stroke-linejoin:round;stroke-miterlimit:4;stroke-dasharray:none;stroke-opacity:1"/><path id="path1442" d="M -407.84793 455.05420 A 6.7174954 7.1973166 0 1 1 -421.28293,455.05420 A 6.7174954 7.1973166 0 1 1 -407.84793 455.05420 z" transform="matrix(0.289811,0.000000,0.000000,0.289811,256.5245,414.4390)" style="opacity:1;fill:#fff;fill-opacity:1;fill-rule:nonzero;stroke:#b3b3b3;stroke-width:.93405789;stroke-linecap:round;stroke-linejoin:round;stroke-miterlimit:4;stroke-dasharray:none;stroke-opacity:1"/><path id="path1444" d="M -407.84793 455.05420 A 6.7174954 7.1973166 0 1 1 -421.28293,455.05420 A 6.7174954 7.1973166 0 1 1 -407.84793 455.05420 z" transform="matrix(0.289811,0.000000,0.000000,0.289811,263.0559,414.5828)" style="opacity:1;fill:#fff;fill-opacity:1;fill-rule:nonzero;stroke:#b3b3b3;stroke-width:.93398726;stroke-linecap:round;stroke-linejoin:round;stroke-miterlimit:4;stroke-dasharray:none;stroke-opacity:1"/><path id="path1446" d="M 134.07267,550.97794 C 134.07267,550.97794 139.20281,561.02288 145.34551,551.08684" style="fill:none;fill-opacity:1;fill-rule:evenodd;stroke:#fff;stroke-width:1.6310863;stroke-linecap:round;stroke-linejoin:round;stroke-miterlimit:4;stroke-dasharray:none;stroke-opacity:1"/></g><path style="opacity:1;fill:url(#linearGradient1456);fill-opacity:1;fill-rule:nonzero;stroke:#6c6c6c;stroke-width:.4812735;stroke-linecap:round;stroke-linejoin:round;stroke-miterlimit:4;stroke-dasharray:none;stroke-opacity:1" id="path1448" d="M 315.14469,163.97734 C 314.03750,163.97734 313.17070,164.88138 313.17070,165.98859 L 313.17070,169.34064 L 310.11661,169.37788 C 309.08502,169.38292 308.24999,170.20856 308.25435,171.24014 L 308.25435,171.94779 C 308.25872,172.97936 309.08502,173.81508 310.11661,173.81005 L 313.17070,173.81005 L 313.17070,176.82689 C 313.17070,177.93408 314.03750,178.83813 315.14469,178.83812 L 315.33091,178.83812 C 316.43810,178.83812 317.30489,177.93409 317.30489,176.82689 L 317.30489,173.77280 L 320.21002,173.77280 C 321.24158,173.76776 322.07666,172.94214 322.07227,171.91055 L 322.07227,171.16565 C 322.06789,170.13406 321.24158,169.29836 320.21002,169.30340 L 317.30489,169.34064 L 317.30489,165.98859 C 317.30489,164.88139 316.43810,163.97734 315.33091,163.97734 L 315.14469,163.97734 z"/><g id="g1686"><rect id="rect1518" width="91.159" height="28.206" x="306.25" y="342.565" ry="3.237" style="opacity:1;fill:none;fill-opacity:1;fill-rule:nonzero;stroke:#646464;stroke-width:2.3994985;stroke-linecap:round;stroke-linejoin:round;stroke-miterlimit:4;stroke-dasharray:none;stroke-opacity:1"/><rect id="rect1520" width="91.727" height="28.47" x="305.474" y="341.83" ry="2.75" style="opacity:1;fill:url(#linearGradient1657);fill-opacity:1;fill-rule:nonzero;stroke:url(#linearGradient1659);stroke-width:1.0292902;stroke-linecap:round;stroke-linejoin:round;stroke-miterlimit:4;stroke-dasharray:none;stroke-opacity:1"/><rect id="rect1522" width="91.723" height="20.875" x="305.479" y="349.425" ry="2.696" style="opacity:1;fill:url(#linearGradient1652);fill-opacity:1;fill-rule:nonzero;stroke:url(#linearGradient1654);stroke-width:1.0287179;stroke-linecap:round;stroke-linejoin:round;stroke-miterlimit:4;stroke-dasharray:none;stroke-opacity:1"/><path id="path1524" d="M 306.26566,344.29933 C 306.26566,344.29933 312.25876,356.61054 306.00087,368.80444 C 306.00087,368.80444 306.32752,344.27313 306.07781,344.06596" style="fill:url(#linearGradient1649);fill-opacity:1;fill-rule:evenodd;stroke:none;stroke-width:1px;stroke-linecap:round;stroke-linejoin:round;stroke-opacity:1"/><path id="path1526" d="M 306.29462,344.29933 C 306.29462,344.29933 312.27882,356.61054 306.03023,368.80444 C 306.03023,368.80444 306.35640,344.27313 306.10707,344.06596" style="fill:url(#linearGradient1646);fill-opacity:1;fill-rule:evenodd;stroke:none;stroke-width:1px;stroke-linecap:round;stroke-linejoin:round;stroke-opacity:1"/><path id="path1528" d="M 396.57783,368.74398 C 396.57783,368.74398 390.94948,356.44527 396.66104,344.23854 C 396.66104,344.23854 396.71995,368.53649 396.95245,368.74314" style="fill:url(#linearGradient1643);fill-opacity:1;fill-rule:evenodd;stroke:none;stroke-width:1px;stroke-linecap:round;stroke-linejoin:round;stroke-opacity:1"/><path id="path1530" d="M 396.57783,368.74398 C 396.57783,368.74398 390.94948,356.44527 396.66104,344.23854 C 396.66104,344.23854 396.71995,368.53649 396.95245,368.74314" style="fill:url(#linearGradient1640);fill-opacity:1;fill-rule:evenodd;stroke:none;stroke-width:1px;stroke-linecap:round;stroke-linejoin:round;stroke-opacity:1"/></g><g id="g6908"><rect id="rect1771" width="91.159" height="28.206" x="305.856" y="307.693" ry="3.237" style="opacity:1;fill:none;fill-opacity:1;fill-rule:nonzero;stroke:#646464;stroke-width:2.3994985;stroke-linecap:round;stroke-linejoin:round;stroke-miterlimit:4;stroke-dasharray:none;stroke-opacity:1"/><rect id="rect1773" width="91.727" height="28.47" x="305.08" y="306.958" ry="2.75" style="opacity:1;fill:url(#linearGradient1819);fill-opacity:1;fill-rule:nonzero;stroke:url(#linearGradient1821);stroke-width:1.0292902;stroke-linecap:round;stroke-linejoin:round;stroke-miterlimit:4;stroke-dasharray:none;stroke-opacity:1"/><rect id="rect1775" width="91.723" height="20.875" x="305.084" y="314.553" ry="2.696" style="opacity:1;fill:url(#linearGradient1814);fill-opacity:1;fill-rule:nonzero;stroke:url(#linearGradient1816);stroke-width:1.0287179;stroke-linecap:round;stroke-linejoin:round;stroke-miterlimit:4;stroke-dasharray:none;stroke-opacity:1"/><path id="path1777" d="M 305.87146,309.42748 C 305.87146,309.42748 311.86456,321.73869 305.60667,333.93259 C 305.60667,333.93259 305.93332,309.40128 305.68361,309.19411" style="fill:url(#linearGradient1811);fill-opacity:1;fill-rule:evenodd;stroke:none;stroke-width:1px;stroke-linecap:round;stroke-linejoin:round;stroke-opacity:1"/><path id="path1779" d="M 305.90042,309.42748 C 305.90042,309.42748 311.88462,321.73869 305.63603,333.93259 C 305.63603,333.93259 305.96220,309.40128 305.71287,309.19411" style="fill:url(#linearGradient1808);fill-opacity:1;fill-rule:evenodd;stroke:none;stroke-width:1px;stroke-linecap:round;stroke-linejoin:round;stroke-opacity:1"/><path id="path1781" d="M 396.18363,333.87213 C 396.18363,333.87213 390.55528,321.57342 396.26684,309.36669 C 396.26684,309.36669 396.32575,333.66464 396.55825,333.87129" style="fill:url(#linearGradient1805);fill-opacity:1;fill-rule:evenodd;stroke:none;stroke-width:1px;stroke-linecap:round;stroke-linejoin:round;stroke-opacity:1"/><path id="path1783" d="M 396.18363,333.87213 C 396.18363,333.87213 390.55528,321.57342 396.26684,309.36669 C 396.26684,309.36669 396.32575,333.66464 396.55825,333.87129" style="fill:url(#linearGradient1802);fill-opacity:1;fill-rule:evenodd;stroke:none;stroke-width:1px;stroke-linecap:round;stroke-linejoin:round;stroke-opacity:1"/></g></g></svg>