<svg xmlns="http://www.w3.org/2000/svg" xmlns:cc="http://web.resource.org/cc/" xmlns:svg="http://www.w3.org/2000/svg" xmlns:xlink="http://www.w3.org/1999/xlink" id="svg11454" width="32" height="32"><defs id="defs11456"><linearGradient id="linearGradient15929"><stop id="stop15931" offset="0" style="stop-color:#cbcbcb;stop-opacity:1"/><stop style="stop-color:#fff;stop-opacity:1" id="stop15933" offset=".5"/><stop id="stop15935" offset="1" style="stop-color:#cbcbcb;stop-opacity:1"/></linearGradient><linearGradient id="linearGradient11452" x1="-567.311" x2="-567.127" y1="166.561" y2="211.99" gradientTransform="matrix(0.164338,0.000000,0.000000,1.122383,101.0244,-188.2017)" gradientUnits="userSpaceOnUse" xlink:href="#linearGradient15929"/><linearGradient id="linearGradient11432" x1="-357.552" x2="-360.552" y1="179.776" y2="182.49" gradientUnits="userSpaceOnUse" xlink:href="#linearGradient20674"/><linearGradient id="linearGradient11430" x1="-386.969" x2="-352.577" y1="191.469" y2="191.469" gradientUnits="userSpaceOnUse" xlink:href="#linearGradient20674"/><linearGradient id="linearGradient11428" x1="-357.552" x2="-360.552" y1="179.776" y2="182.49" gradientUnits="userSpaceOnUse" xlink:href="#linearGradient20674"/><linearGradient id="linearGradient20674"><stop id="stop20676" offset="0" style="stop-color:#93aacc;stop-opacity:1"/><stop id="stop20678" offset="1" style="stop-color:#f8f8f8;stop-opacity:1"/></linearGradient><linearGradient id="linearGradient11426" x1="-406.239" x2="-352.577" y1="191.469" y2="191.469" gradientUnits="userSpaceOnUse" xlink:href="#linearGradient20674"/><linearGradient id="linearGradient1328" x1="-403.405" x2="-352.577" y1="191.469" y2="191.469" gradientUnits="userSpaceOnUse" xlink:href="#linearGradient20674"/><linearGradient id="linearGradient1330" x1="-357.552" x2="-360.552" y1="179.776" y2="182.49" gradientUnits="userSpaceOnUse" xlink:href="#linearGradient20674"/><linearGradient id="linearGradient1340" x1="-403.405" x2="-352.577" y1="191.469" y2="191.469" gradientUnits="userSpaceOnUse" xlink:href="#linearGradient20674"/><linearGradient id="linearGradient1342" x1="-357.552" x2="-360.552" y1="179.776" y2="182.49" gradientUnits="userSpaceOnUse" xlink:href="#linearGradient20674"/><linearGradient id="linearGradient1344" x1="-406.239" x2="-352.577" y1="191.469" y2="191.469" gradientUnits="userSpaceOnUse" xlink:href="#linearGradient20674"/><linearGradient id="linearGradient1346" x1="-357.552" x2="-360.552" y1="179.776" y2="182.49" gradientUnits="userSpaceOnUse" xlink:href="#linearGradient20674"/></defs><metadata id="metadata11459"/><g id="layer1"><rect style="opacity:1;fill:url(#linearGradient11452);fill-opacity:1;fill-rule:nonzero;stroke:#c3c3c3;stroke-width:.42947698;stroke-linecap:round;stroke-linejoin:round;stroke-miterlimit:4;stroke-dasharray:none;stroke-opacity:1" id="rect11450" width="23.571" height="23.57" x=".215" y="8.215" ry="4.49"/><g id="g1322" transform="matrix(0.361982,0.000000,0.000000,0.345716,141.8301,-48.37695)"><path id="path1324" d="M -376.63483,174.85435 C -376.88586,174.85435 -377.08323,175.05171 -377.08323,175.30275 L -377.08323,207.63483 C -377.08323,207.88586 -376.88587,208.08323 -376.63483,208.08323 L -353.36517,208.08323 C -353.11414,208.08323 -352.91677,207.88587 -352.91677,207.63483 L -352.91677,181.88716 L -359.94959,174.85435 L -376.63483,174.85435 z" style="opacity:1;fill:url(#linearGradient1328);fill-opacity:1;fill-rule:nonzero;stroke:#646464;stroke-width:.68000001;stroke-linecap:round;stroke-linejoin:round;stroke-miterlimit:4;stroke-dasharray:none;stroke-opacity:1"/><path id="path1326" d="M -360.02322,174.85718 C -360.08344,174.93409 -360.21202,174.94028 -360.21202,175.04598 L -360.21202,181.70119 C -360.21202,181.95222 -360.01466,182.14960 -359.76362,182.14960 L -353.10840,182.14960 C -353.00270,182.14960 -352.99651,182.02102 -352.91960,181.96080 L -352.91960,181.89000 L -359.95242,174.85718 L -360.02322,174.85718 z" style="opacity:1;fill:url(#linearGradient1330);fill-opacity:1;fill-rule:nonzero;stroke:#646464;stroke-width:.68000001;stroke-linecap:round;stroke-linejoin:round;stroke-miterlimit:4;stroke-dasharray:none;stroke-opacity:1"/></g><g id="g11420" transform="matrix(0.361982,0.000000,0.000000,0.345716,146.4265,-44.01799)"><path id="path11422" d="M -376.63483,174.85435 C -376.88586,174.85435 -377.08323,175.05171 -377.08323,175.30275 L -377.08323,207.63483 C -377.08323,207.88586 -376.88587,208.08323 -376.63483,208.08323 L -353.36517,208.08323 C -353.11414,208.08323 -352.91677,207.88587 -352.91677,207.63483 L -352.91677,181.88716 L -359.94959,174.85435 L -376.63483,174.85435 z" style="opacity:1;fill:url(#linearGradient11426);fill-opacity:1;fill-rule:nonzero;stroke:#646464;stroke-width:.68000001;stroke-linecap:round;stroke-linejoin:round;stroke-miterlimit:4;stroke-dasharray:none;stroke-opacity:1"/><path id="path11424" d="M -360.02322,174.85718 C -360.08344,174.93409 -360.21202,174.94028 -360.21202,175.04598 L -360.21202,181.70119 C -360.21202,181.95222 -360.01466,182.14960 -359.76362,182.14960 L -353.10840,182.14960 C -353.00270,182.14960 -352.99651,182.02102 -352.91960,181.96080 L -352.91960,181.89000 L -359.95242,174.85718 L -360.02322,174.85718 z" style="opacity:1;fill:url(#linearGradient11428);fill-opacity:1;fill-rule:nonzero;stroke:#646464;stroke-width:.68000001;stroke-linecap:round;stroke-linejoin:round;stroke-miterlimit:4;stroke-dasharray:none;stroke-opacity:1"/></g><rect style="opacity:1;fill:none;fill-opacity:1;fill-rule:nonzero;stroke:#c3c3c3;stroke-width:.42947698;stroke-linecap:round;stroke-linejoin:round;stroke-miterlimit:4;stroke-dasharray:none;stroke-opacity:1" id="rect1324" width="23.571" height="23.57" x="26.417" y="8.263" ry="4.49"/><g id="g1326" transform="matrix(0.361982,0.000000,0.000000,0.345716,168.0328,-48.32967)"><path id="path1328" d="M -376.63483,174.85435 C -376.88586,174.85435 -377.08323,175.05171 -377.08323,175.30275 L -377.08323,207.63483 C -377.08323,207.88586 -376.88587,208.08323 -376.63483,208.08323 L -353.36517,208.08323 C -353.11414,208.08323 -352.91677,207.88587 -352.91677,207.63483 L -352.91677,181.88716 L -359.94959,174.85435 L -376.63483,174.85435 z" style="opacity:1;fill:url(#linearGradient1340);fill-opacity:1;fill-rule:nonzero;stroke:#646464;stroke-width:.68000001;stroke-linecap:round;stroke-linejoin:round;stroke-miterlimit:4;stroke-dasharray:none;stroke-opacity:1"/><path id="path1330" d="M -360.02322,174.85718 C -360.08344,174.93409 -360.21202,174.94028 -360.21202,175.04598 L -360.21202,181.70119 C -360.21202,181.95222 -360.01466,182.14960 -359.76362,182.14960 L -353.10840,182.14960 C -353.00270,182.14960 -352.99651,182.02102 -352.91960,181.96080 L -352.91960,181.89000 L -359.95242,174.85718 L -360.02322,174.85718 z" style="opacity:1;fill:url(#linearGradient1342);fill-opacity:1;fill-rule:nonzero;stroke:#646464;stroke-width:.68000001;stroke-linecap:round;stroke-linejoin:round;stroke-miterlimit:4;stroke-dasharray:none;stroke-opacity:1"/></g><g id="g1332" transform="matrix(0.361982,0.000000,0.000000,0.345716,172.6292,-43.97071)"><path id="path1334" d="M -376.63483,174.85435 C -376.88586,174.85435 -377.08323,175.05171 -377.08323,175.30275 L -377.08323,207.63483 C -377.08323,207.88586 -376.88587,208.08323 -376.63483,208.08323 L -353.36517,208.08323 C -353.11414,208.08323 -352.91677,207.88587 -352.91677,207.63483 L -352.91677,181.88716 L -359.94959,174.85435 L -376.63483,174.85435 z" style="opacity:1;fill:url(#linearGradient1344);fill-opacity:1;fill-rule:nonzero;stroke:#646464;stroke-width:.68000001;stroke-linecap:round;stroke-linejoin:round;stroke-miterlimit:4;stroke-dasharray:none;stroke-opacity:1"/><path id="path1336" d="M -360.02322,174.85718 C -360.08344,174.93409 -360.21202,174.94028 -360.21202,175.04598 L -360.21202,181.70119 C -360.21202,181.95222 -360.01466,182.14960 -359.76362,182.14960 L -353.10840,182.14960 C -353.00270,182.14960 -352.99651,182.02102 -352.91960,181.96080 L -352.91960,181.89000 L -359.95242,174.85718 L -360.02322,174.85718 z" style="opacity:1;fill:url(#linearGradient1346);fill-opacity:1;fill-rule:nonzero;stroke:#646464;stroke-width:.68000001;stroke-linecap:round;stroke-linejoin:round;stroke-miterlimit:4;stroke-dasharray:none;stroke-opacity:1"/></g></g></svg>