<svg xmlns="http://www.w3.org/2000/svg" xmlns:cc="http://web.resource.org/cc/" xmlns:svg="http://www.w3.org/2000/svg" xmlns:xlink="http://www.w3.org/1999/xlink" id="svg1921" width="32" height="32"><defs id="defs1923"><linearGradient id="linearGradient2774"><stop style="stop-color:#aa3741;stop-opacity:1" id="stop2776" offset="0"/><stop style="stop-color:#fff;stop-opacity:0" id="stop2778" offset="1"/></linearGradient><linearGradient id="linearGradient15788"><stop id="stop15790" offset="0" style="stop-color:#ffc768;stop-opacity:1"/><stop style="stop-color:#ff8400;stop-opacity:1" id="stop15792" offset="1"/></linearGradient><radialGradient id="radialGradient1913" cx="-399.691" cy="462.252" r="37.197" fx="-399.691" fy="462.252" gradientTransform="matrix(1.635675,-1.961020e-6,1.094146e-6,1.622788,254.0731,-287.8854)" gradientUnits="userSpaceOnUse" xlink:href="#linearGradient15788"/><linearGradient id="linearGradient15050"><stop style="stop-color:#fff;stop-opacity:1" id="stop15052" offset="0"/><stop style="stop-color:#fff;stop-opacity:0" id="stop15054" offset="1"/></linearGradient><linearGradient id="linearGradient1911" x1="-281.985" x2="-281.985" y1="335.071" y2="350.791" gradientUnits="userSpaceOnUse" xlink:href="#linearGradient15050"/><linearGradient id="linearGradient11116"><stop style="stop-color:#143e7b;stop-opacity:1" id="stop11118" offset="0"/><stop style="stop-color:#93aacc;stop-opacity:1" id="stop11120" offset="1"/></linearGradient><linearGradient id="linearGradient1909" x1="-336" x2="-329.679" y1="266.239" y2="266.239" gradientTransform="matrix(0.000000,-0.727608,0.727608,0.000000,-170.0531,-217.5186)" gradientUnits="userSpaceOnUse" xlink:href="#linearGradient11116"/><linearGradient id="linearGradient7820" x1="-34.629" x2="-9.096" y1="254.022" y2="254.022" gradientTransform="matrix(0.814604,0.000000,0.000000,0.814604,-6.392184,45.16642)" gradientUnits="userSpaceOnUse" xlink:href="#linearGradient11116"/><linearGradient id="linearGradient2212"><stop id="stop2214" offset="0" style="stop-color:#143e7b;stop-opacity:1"/><stop id="stop2216" offset="1" style="stop-color:#93aacc;stop-opacity:1"/></linearGradient><linearGradient id="linearGradient7822" x1="-31.224" x2="-27.273" y1="242.485" y2="258.669" gradientTransform="matrix(0.630906,0.000000,0.000000,0.644661,-11.33490,88.76356)" gradientUnits="userSpaceOnUse" xlink:href="#linearGradient15050"/><linearGradient id="linearGradient6344" x1="-567.311" x2="-567.127" y1="166.561" y2="211.99" gradientTransform="matrix(0.164338,0.000000,0.000000,1.122383,101.0243,-188.2016)" gradientUnits="userSpaceOnUse" xlink:href="#linearGradient15929"/><linearGradient id="linearGradient15929"><stop style="stop-color:#cbcbcb;stop-opacity:1" id="stop15931" offset="0"/><stop id="stop15933" offset=".5" style="stop-color:#fff;stop-opacity:1"/><stop style="stop-color:#cbcbcb;stop-opacity:1" id="stop15935" offset="1"/></linearGradient><linearGradient id="linearGradient2229" x1="-567.311" x2="-567.127" y1="166.561" y2="211.99" gradientTransform="matrix(0.164338,0.000000,0.000000,1.122383,101.0243,-188.2016)" gradientUnits="userSpaceOnUse" xlink:href="#linearGradient15929"/><radialGradient id="radialGradient2239" cx="-399.691" cy="462.252" r="37.197" fx="-399.691" fy="462.252" gradientTransform="matrix(1.635675,-1.961020e-6,1.094146e-6,1.622788,254.0731,-287.8854)" gradientUnits="userSpaceOnUse" xlink:href="#linearGradient15788"/><linearGradient id="linearGradient2241" x1="-281.985" x2="-281.985" y1="335.071" y2="350.791" gradientUnits="userSpaceOnUse" xlink:href="#linearGradient15050"/><linearGradient id="linearGradient2243" x1="-336" x2="-329.679" y1="266.239" y2="266.239" gradientTransform="matrix(0.000000,-0.727608,0.727608,0.000000,-170.0531,-217.5186)" gradientUnits="userSpaceOnUse" xlink:href="#linearGradient11116"/><radialGradient id="radialGradient1358" cx="-399.691" cy="462.252" r="37.197" fx="-399.691" fy="462.252" gradientTransform="matrix(1.635675,-1.961020e-6,1.094146e-6,1.622788,254.0731,-287.8854)" gradientUnits="userSpaceOnUse" xlink:href="#linearGradient15788"/><linearGradient id="linearGradient1360" x1="-281.985" x2="-281.985" y1="335.071" y2="350.791" gradientUnits="userSpaceOnUse" xlink:href="#linearGradient15050"/><linearGradient id="linearGradient1362" x1="-336" x2="-329.679" y1="266.239" y2="266.239" gradientTransform="matrix(0.000000,-0.727608,0.727608,0.000000,-170.0531,-217.5186)" gradientUnits="userSpaceOnUse" xlink:href="#linearGradient11116"/></defs><metadata id="metadata1926"/><g id="layer1"><rect style="opacity:1;fill:url(#linearGradient2229);fill-opacity:1;fill-rule:nonzero;stroke:#c3c3c3;stroke-width:.42947698;stroke-linecap:round;stroke-linejoin:round;stroke-miterlimit:4;stroke-dasharray:none;stroke-opacity:1" id="rect6342" width="23.571" height="23.57" x=".215" y="8.215" ry="4.49"/><g id="g2231" transform="matrix(0.745278,0.000000,0.000000,0.745278,0.332594,7.908474)"><path id="path1870" d="M -362.74475 462.25150 A 36.946224 36.466404 0 1 1 -436.63720,462.25150 A 36.946224 36.466404 0 1 1 -362.74475 462.25150 z" transform="matrix(0.286744,0.000000,0.000000,0.286744,129.3056,-116.3329)" style="opacity:1;fill:url(#radialGradient2239);fill-opacity:1;fill-rule:nonzero;stroke:#b3b3b3;stroke-width:1.872668;stroke-linecap:round;stroke-linejoin:round;stroke-miterlimit:4;stroke-dasharray:none;stroke-opacity:1"/><path id="path1872" d="M -273.91787,347.03445 A 8.0669918,7.9770255 0 1 1 -273.91822,346.96076" transform="matrix(0.000000,1.055111,-0.853600,0.000000,313.2818,313.6803)" style="opacity:1;fill:url(#linearGradient2241);fill-opacity:1;fill-rule:nonzero;stroke:none;stroke-width:.39899999;stroke-linecap:round;stroke-linejoin:round;stroke-miterlimit:4;stroke-dasharray:none;stroke-opacity:1"/><path id="path1876" d="M -407.84793 455.05420 A 6.7174954 7.1973166 0 1 1 -421.28293,455.05420 A 6.7174954 7.1973166 0 1 1 -407.84793 455.05420 z" transform="matrix(0.286744,0.000000,0.000000,0.286744,136.7140,-116.4207)" style="opacity:1;fill:#656565;fill-opacity:1;fill-rule:nonzero;stroke:#b3b3b3;stroke-width:1.2467583;stroke-linecap:round;stroke-linejoin:round;stroke-miterlimit:4;stroke-dasharray:none;stroke-opacity:1"/><path id="path1878" d="M 9.0975544,18.528352 C 9.0975544,18.528352 14.173324,28.466813 20.250906,18.636092" style="fill:none;fill-opacity:1;fill-rule:evenodd;stroke:#bc1e1e;stroke-width:1.6137973;stroke-linecap:round;stroke-linejoin:round;stroke-miterlimit:4;stroke-dasharray:none;stroke-opacity:1"/><path id="path1907" d="M 20.004066,22.510528 L 23.636765,26.807444 L 27.325666,22.510528 L 20.004066,22.510528 z" style="fill:url(#linearGradient2243);fill-opacity:1;fill-rule:evenodd;stroke:#3c3c3c;stroke-width:.30197555px;stroke-linecap:round;stroke-linejoin:round;stroke-opacity:1"/><path id="path3508" d="M -407.84793 455.05420 A 6.7174954 7.1973166 0 1 1 -421.28293,455.05420 A 6.7174954 7.1973166 0 1 1 -407.84793 455.05420 z" transform="matrix(0.286744,0.000000,0.000000,0.286744,130.9869,-116.4666)" style="opacity:1;fill:#656565;fill-opacity:1;fill-rule:nonzero;stroke:#b3b3b3;stroke-width:1.2467583;stroke-linecap:round;stroke-linejoin:round;stroke-miterlimit:4;stroke-dasharray:none;stroke-opacity:1"/></g><rect style="opacity:1;fill:none;fill-opacity:1;fill-rule:nonzero;stroke:#c3c3c3;stroke-width:.42947698;stroke-linecap:round;stroke-linejoin:round;stroke-miterlimit:4;stroke-dasharray:none;stroke-opacity:1" id="rect1340" width="23.571" height="23.57" x="27.025" y="8.215" ry="4.49"/><g id="g1342" transform="matrix(0.745278,0.000000,0.000000,0.745278,27.14259,7.907975)"><path id="path1344" d="M -362.74475 462.25150 A 36.946224 36.466404 0 1 1 -436.63720,462.25150 A 36.946224 36.466404 0 1 1 -362.74475 462.25150 z" transform="matrix(0.286744,0.000000,0.000000,0.286744,129.3056,-116.3329)" style="opacity:1;fill:url(#radialGradient1358);fill-opacity:1;fill-rule:nonzero;stroke:#b3b3b3;stroke-width:1.872668;stroke-linecap:round;stroke-linejoin:round;stroke-miterlimit:4;stroke-dasharray:none;stroke-opacity:1"/><path id="path1346" d="M -273.91787,347.03445 A 8.0669918,7.9770255 0 1 1 -273.91822,346.96076" transform="matrix(0.000000,1.055111,-0.853600,0.000000,313.2818,313.6803)" style="opacity:1;fill:url(#linearGradient1360);fill-opacity:1;fill-rule:nonzero;stroke:none;stroke-width:.39899999;stroke-linecap:round;stroke-linejoin:round;stroke-miterlimit:4;stroke-dasharray:none;stroke-opacity:1"/><path id="path1348" d="M -407.84793 455.05420 A 6.7174954 7.1973166 0 1 1 -421.28293,455.05420 A 6.7174954 7.1973166 0 1 1 -407.84793 455.05420 z" transform="matrix(0.286744,0.000000,0.000000,0.286744,136.7140,-116.4207)" style="opacity:1;fill:#656565;fill-opacity:1;fill-rule:nonzero;stroke:#b3b3b3;stroke-width:1.2467583;stroke-linecap:round;stroke-linejoin:round;stroke-miterlimit:4;stroke-dasharray:none;stroke-opacity:1"/><path id="path1350" d="M 9.0975544,18.528352 C 9.0975544,18.528352 14.173324,28.466813 20.250906,18.636092" style="fill:none;fill-opacity:1;fill-rule:evenodd;stroke:#bc1e1e;stroke-width:1.6137973;stroke-linecap:round;stroke-linejoin:round;stroke-miterlimit:4;stroke-dasharray:none;stroke-opacity:1"/><path id="path1352" d="M 20.004066,22.510528 L 23.636765,26.807444 L 27.325666,22.510528 L 20.004066,22.510528 z" style="fill:url(#linearGradient1362);fill-opacity:1;fill-rule:evenodd;stroke:#3c3c3c;stroke-width:.30197555px;stroke-linecap:round;stroke-linejoin:round;stroke-opacity:1"/><path id="path1354" d="M -407.84793 455.05420 A 6.7174954 7.1973166 0 1 1 -421.28293,455.05420 A 6.7174954 7.1973166 0 1 1 -407.84793 455.05420 z" transform="matrix(0.286744,0.000000,0.000000,0.286744,130.9869,-116.4666)" style="opacity:1;fill:#656565;fill-opacity:1;fill-rule:nonzero;stroke:#b3b3b3;stroke-width:1.2467583;stroke-linecap:round;stroke-linejoin:round;stroke-miterlimit:4;stroke-dasharray:none;stroke-opacity:1"/></g></g></svg>